<svg version="1.2" xmlns="http://www.w3.org/2000/svg" viewBox="0 0 406 461" width="500" height="568">
	<title>5584438-ai</title>
	<style>
		.s0 { fill: #ffffff } 
		.s1 { fill: #9e9ea6 } 
		.s2 { fill: #3a3a51 } 
		.s3 { fill: #f7f7f7 } 
		.s4 { fill: #ffcfc4 } 
		.s5 { fill: #4a5061 } 
		.s6 { fill: #383d4a } 
		.s7 { fill: #4260a3 } 
		.s8 { fill: #ffc64a } 
		.s9 { fill: #5075c7 } 
		.s10 { fill: #f09a92 } 
		.s11 { fill: #ff9c30 } 
		.s12 { fill: #d7e2f7 } 
		.s13 { mix-blend-mode: multiply;fill: #e0e0e0 } 
		.s14 { fill: #fa7c28 } 
		.s15 { fill: #cf304e } 
		.s16 { fill: #a3263d } 
		.s17 { fill: #2d9c86 } 
		.s18 { fill: #237867 } 
		.s19 { fill: none;stroke: #93d992;stroke-width: 3 } 
	</style>
	<g id="BACKGROUND">
		<path id="&lt;Path&gt;" class="s0" d="m439 492h-1500v-1000h1500z"/>
	</g>
	<g id="OBJECTS">
		<g id="&lt;Group&gt;">
			<g id="&lt;Group&gt;">
				<path id="&lt;Path&gt;" class="s1" d="m-820.7-97.8c0 15.1-12.3 27.4-27.4 27.4-15 0-27.3-12.3-27.3-27.4 0-15.1 12.3-27.3 27.3-27.3 15.1 0 27.4 12.2 27.4 27.3z"/>
				<g id="&lt;Group&gt;">
					<path id="&lt;Path&gt;" class="s2" d="m-829.3-113.8l-0.1 10 5.9 8 2.7-3.6c-0.2-4.7-1.7-9.2-4.2-13.1z"/>
					<path id="&lt;Path&gt;" class="s2" d="m-827-80.4v-4.5l-9.5 3-5.8 8.1 4.3 1.5c4.3-1.7 8.1-4.5 11-8.1z"/>
					<path id="&lt;Path&gt;" class="s2" d="m-848.1-108.6l-10.3 7.5 4 12.1h12.7l4-12.1z"/>
					<path id="&lt;Path&gt;" class="s2" d="m-848.1-117.4l9.5-3.2-2.6-3.6q-3.4-0.9-6.9-0.9c-2.3 0-4.6 0.3-6.8 0.9l-2.6 3.6z"/>
					<path id="&lt;Path&gt;" class="s2" d="m-853.8-73.8l-5.8-8.1-9.5-3v4.5c2.9 3.6 6.7 6.4 11 8.1z"/>
					<path id="&lt;Path&gt;" class="s2" d="m-872.6-95.8l5.9-8-0.1-10-4.3 1.3c-2.5 3.9-4 8.4-4.2 13.1z"/>
				</g>
				<g id="&lt;Group&gt;">
					<path id="&lt;Path&gt;" class="s3" d="m-829.4-114.4l4 1.3c-3.6-5.3-8.9-9.2-15.1-10.9l2.5 3.4c4.5 1.8 8.1 5.7 8.6 6.2z"/>
					<path id="&lt;Path&gt;" class="s3" d="m-866.7-114.4c3.1-3.7 8-6 8.6-6.2l2.5-3.4c-6.2 1.7-11.5 5.6-15.1 10.9z"/>
					<path id="&lt;Path&gt;" class="s3" d="m-829.7-103.5l-7.5 2.5-4 12.2 4.6 6.4 9.7-3c0.4-0.7 2.9-5.2 3.2-9.9z"/>
					<path id="&lt;Path&gt;" class="s3" d="m-829.8-103.9v-10.2c-0.5-0.5-4-4.3-8.4-6.1l-9.6 3.2v7.9l10.4 7.6z"/>
					<path id="&lt;Path&gt;" class="s3" d="m-847.7-72.8c-2.9 0-5.2-0.5-5.7-0.6l-4 1.3c3 1.1 6.1 1.7 9.3 1.7 3.3 0 6.4-0.6 9.4-1.7l-4-1.3c-1.7 0.4-3.4 0.6-5 0.6z"/>
					<path id="&lt;Path&gt;" class="s3" d="m-820.7-97.8q0-0.4 0-0.9l-2.5 3.4c-0.3 4.8-3 9.5-3.3 10.1v4.2c3.7-4.8 5.8-10.7 5.8-16.8z"/>
					<path id="&lt;Path&gt;" class="s3" d="m-859.5-82.4l4.6-6.4-3.9-12.2-7.6-2.5-6 8.2c0.1 0.7 0.7 5.9 3.2 9.8z"/>
					<path id="&lt;Path&gt;" class="s3" d="m-853.2-73.9c0.7 0.2 5.8 1.2 10.3 0l5.9-8.2-4.6-6.4h-12.9l-4.6 6.4z"/>
					<path id="&lt;Path&gt;" class="s3" d="m-875.4-98.7q0 0.5 0 0.9c0 6.1 2.1 12 5.8 16.8v-4.2c-2.6-4.1-3.2-9.4-3.3-10.1z"/>
					<path id="&lt;Path&gt;" class="s3" d="m-866.3-114.1v10.2l7.6 2.4 10.4-7.6v-7.9l-9.6-3.2c-0.7 0.3-5.4 2.5-8.4 6.1z"/>
				</g>
			</g>
			<g id="&lt;Group&gt;">
				<path id="&lt;Path&gt;" class="s4" d="m-838.6-180.8c8.1 9 13.5 13.7 16.1 15.7 2.6 2 7.1 2.6 11.6 1.6 4.5-0.9 9.9-3.3 9.9-3.3 0 0 6-11-2.2-30.5h-1.8l-1.7-4.2-1.1-7.4c0 0-12.4 0.3-23.4 8-11 7.7-12.5 17-12.5 17z"/>
				<path id="&lt;Path&gt;" class="s4" d="m-922.5-198.6c0 0-8.2 17.7-10.2 23.5-2 5.7-1.4 12-1 15.6 0.5 3.7 1.6 7.7 1.6 7.7 0 0 15.6-5.9 30.9-2l-2.2-8.9c0 0 17.5-14.1 24-19.6-8.4-11.6-29.1-20.3-43.1-16.3z"/>
				<g id="&lt;Group&gt;">
					<path id="&lt;Path&gt;" class="s5" d="m-898.7-247c0 0-21.3 38.2-27.1 52.8 18.7 5.5 33.1 11.8 47 26.2 1.2-4.2 5.1-14.9 5.1-14.9l16.6-16.1c0 0 11.4 16 12.4 17.7 3.6 0.7 6.1 0.5 6.1 0.5l-2.4-3.1c0 0 9.1-14.1 33.2-21.2l1.1 3.6c0 0 5.3-4.1 10.1-10-4.5-6.3-10.3-13-10.3-13 0 0-1.6-22.3-10.4-42.4h-73.6c0 0-4.5 7-7.8 19.9z"/>
					<path id="&lt;Path&gt;" class="s6" d="m-877.7-239.9c13.8-1.4 46.5-9.8 66.1-10.5-1.5-5.3-3.3-11-5.7-16.5h-73.6c0 0-4.5 7-7.8 19.9 0 0-1.1 1.9-2.7 5 3.5 1.2 11.9 3.3 23.7 2.1z"/>
					<path id="&lt;Path&gt;" class="s6" d="m-857.1-199c0 0-13.6-21.5-17.7-30.5 0.2 26.6 1.1 46.6 1.1 46.6z"/>
					<g id="&lt;Group&gt;">
						<path id="&lt;Path&gt;" class="s6" d="m-838.6-180.8l-2.4-3.1-3.7 2.6c3.6 0.7 6.1 0.5 6.1 0.5z"/>
						<path id="&lt;Path&gt;" class="s6" d="m-807.8-205.1l1.1 3.6c0 0 5.3-4.1 10.1-10-0.7 0.3-11.2 6.4-11.2 6.4z"/>
					</g>
				</g>
				<path id="&lt;Path&gt;" class="s4" d="m-797.5-339.8c0 0 6.8 4.1 8.7 5.1 1.8 0.9 10.3 5.8 17.1 11.8 6.7 6 30.5 28.6 32.1 30.8 1.7 2.1 7.2 9.9 7.9 11.7 0.8 1.9 1.4 5 1.4 5.8-0.1 0.9-3.2 4.4-4.1 6.1-0.2 0.7-0.6 3.3-2 3.4-1.4 0.2-3.2 0.2-3.5-0.1-0.3-0.3-2.2-3.5-2.2-3.5 0 0-2.3-0.5-3.1-1.1-0.8-0.5-1.7-1.6-1.8-2.9-0.1-1.2 0.1-7.6-0.1-9.2-0.2-1.6-4.6-5.9-14.1-12.7-9.5-6.9-19-10-28.1-16.7-7.1-5.2-10.7-7.4-10.7-7.4-5.6-1.1-15.8-4.4-15.8-4.4l3.2-21.8c0 0 8.3 2.5 15.1 5.1z"/>
				<path id="&lt;Path&gt;" class="s4" d="m-889.1-286.5c0 0-7.3 3.1-9.1 4.1-1.9 1-10.8 5-19.6 7.1-8.8 2-41 8.3-43.7 8.4-2.6 0.1-12.2 0.1-14.1-0.4-2-0.5-4.9-1.8-5.6-2.3-0.6-0.5-1.6-5.1-2.5-6.8-0.5-0.6-2.4-2.4-1.7-3.7 0.7-1.2 1.7-2.6 2.2-2.7 0.4-0.1 4.1 0.2 4.1 0.2 0 0 1.8-1.6 2.6-1.9 0.9-0.3 2.3-0.4 3.4 0.2 1.1 0.7 6.2 4.6 7.7 5.3 1.4 0.7 7.4-0.3 18.5-4.1 11.1-3.8 19.1-9.7 29.8-13.3 8.4-2.8 12.3-4.4 12.3-4.4 4.1-3.9 12.8-10.3 12.8-10.3l15.9 15.3c0 0-6.9 5.3-13 9.3z"/>
				<g id="&lt;Group&gt;">
					<path id="&lt;Path&gt;" class="s7" d="m-910.2-330.9l-0.2 30c1.2 2.7 16.5 13.3 27.6 11.8v-41.8z"/>
					<path id="&lt;Path&gt;" class="s8" d="m-910.4-306.7v5.8c1.2 2.7 16.5 13.3 27.6 11.8v-5.2c-19.4-2-27.5-12.4-27.6-12.4z"/>
					<path id="&lt;Path&gt;" class="s9" d="m-893.8-363.7c0 0-13.9 16.9-15 18.7-1 1.8-2.6 9.5-0.7 17.6 1.8 8.2 15 54.5 15 54.5-1.7 10.9-7 25.8-7 25.8 1.6 2.6 10.6 9 25.4 6.7 35.7-5.5 64.3-21.6 64.4-22.6 0.1-0.9 0.6-8.5 0-9.6-0.6-1.2-5.4-7.9-6.7-10.3-1.3-2.3-8.7-37.1-8.7-37.1l19.1 4.8c0 0 6.9-20.1 12.4-27 0 0-35.1-17.9-38.4-19.5-3.3-1.5-8.2-3.3-12.3-4-4-0.6-24.8-6-28.7-6.5-3.9-0.5-11.9 1.2-18.8 8.5z"/>
					<path id="&lt;Path&gt;" class="s8" d="m-870.5-273.1v-0.4c-0.1-0.2-1.8-12.4-4-28.2 11.7-2.4 28.1-4.4 50.3-4.8-1-4.7-1.9-8.8-2.4-11.3-21.3 0.5-37.4 2.5-49.4 4.9-1.6-12.5-3.3-26-4.4-37.2l-11.2 1.1c1.1 11.7 2.9 25.7 4.6 38.6-8.1 2.3-13.3 4.5-16.3 6 0.9 3.6 2 7.2 2.9 10.7l0.3 0.4c0.1-0.1 4.2-2.8 14.6-5.8 1.9 14.4 3.5 25.5 3.8 27.1 0.2 4.1 0.1 20.4 0 32.1q2.7 0 5.6-0.5 2.9-0.4 5.7-1c0.2-11 0.2-27.4-0.1-31.7z"/>
					<path id="&lt;Path&gt;" class="s8" d="m-869.2-362.7c0.8-3.4 1.4-6.1 1.9-7.9-3.5-0.8-6.5-1.4-7.7-1.6-3.9-0.5-11.9 1.2-18.8 8.5 0 0-3.8 4.6-7.6 9.2 1.4 2.5 5.2 7.9 13.1 9.9 11.4-2.3 17.6-11.7 19.1-18.1z"/>
					<path id="&lt;Path&gt;" class="s10" d="m-893.6-352.4c0 0 1.6 5.8 5.9 4.9 3.6-0.8 10.3-1.5 14-12.9 2-6.3-0.4-14.8-0.4-14.8h-25c0 0 2 15.4 5.5 22.8z"/>
					<path id="&lt;Path&gt;" class="s8" d="m-800.9-344.9c-8.2 8.1-12 23.1-13.1 28.2l6 1.5c0 0 6.9-20.1 12.4-27 0 0-2-1.1-5.3-2.7z"/>
					<path id="&lt;Path&gt;" class="s7" d="m-842.3-343.1c-1.7 5.1-1.6 21.5-1.1 25.2 4 10.6 13.7 37 13.7 37 1.5 5.6 3.3 19.7 3.9 25.4 8.8-3.9 14.1-7.1 14.1-7.5 0.1-0.9 0.6-8.5 0-9.6-0.6-1.2-5.4-7.9-6.7-10.3-1.3-2.3-8.7-37.1-8.7-37.1l-10.1-2.9c0 0-4.5-5.1-5.1-20.2z"/>
					<path id="&lt;Path&gt;" class="s11" d="m-826.6-317.8q-8.8 0.2-16.5 0.8c1.1 2.9 2.6 6.8 4.2 11q6.9-0.4 14.7-0.5c-1-4.7-1.9-8.8-2.4-11.3z"/>
				</g>
				<g id="&lt;Group&gt;">
					<path id="&lt;Path&gt;" class="s4" d="m-910.4-365.4c2.9 4.1 1.6 6.1 5.9 9.4 4.4 3.4 9.9 5.5 11.6 6.2 1.6 0.7 5.1 0 8.3-2.2 3.2-2.2 12-12.4 11.7-22.8 3.6-3.8 6.6-9.1 2.2-16.2-0.5-3.7-8.1-30.5-26.2-26-18 4.6-22.7 13.5-23 21.5-0.3 8 2.8 17.3 3.8 19.8 1.1 2.5 3.2 6.9 5.7 10.3z"/>
					<path id="&lt;Path&gt;" class="s5" d="m-916.4-376.6c0 0 6.9 0.2 8.4-0.1 1.6-0.2 18-10.3 19.2-11.1 1.2-0.8 3.2-0.7 4.4 1.1 1.2 1.9 3.8 0.6 4.5 1.7 0.7 1.1 1.7 4.8 1.7 4.8 0 0 2.1-1.4 2.3-1.9 0.1-0.6-1.3-3-0.4-6.9 1-3.9 4.9-3.5 6.2-1-0.2-3.4-0.1-11.5-5-19.8-4-6.9-15.6-12.6-28.7-7.7-13.2 4.9-17.8 13.3-17.9 22.9-0.2 9.5 3.4 15.6 5.3 18z"/>
				</g>
				<path id="&lt;Path&gt;" class="s8" d="m-932.1-151.8c0 0-0.7 0.2-0.5 1.9 0.3 1.6 13.2 65.2 14 71.8 0.8 6.6-0.7 10.9-0.8 14.2-0.1 3.3 0.6 6.5 11.2 6.9 10.6 0.3 14.6-4.6 14.4-6.6-0.1-2-2.6-5-3-8-0.5-3.1-1.6-28.1-0.4-42.5 1.2-14.5 1.9-23.4 0.9-29.1-1-5.7-3.8-9.9-3.9-10.2-0.2-0.2-1-0.4-1-0.4 0 0-11.4-4.4-30.9 2z"/>
				<path id="&lt;Path&gt;" class="s8" d="m-801-166.8c0 0 0.3 0.2 1.4 0 1.2-0.3 67.6-25.7 76.2-29 8.6-3.3 13.7-4.1 14.4-5.6 0.7-1.5 0.7-10.5-5.9-12.5-6.7-2-11.5 0.4-16.4 1.8-5 1.5-16.7 2.2-30.5 3.2-13.8 1-21.4 2.4-30.1 6.1-8.7 3.7-10.5 4.5-11 4.8-0.4 0.3-0.3 0.7-0.3 0.7 0 0 6.2 11.1 2.2 30.5z"/>
				<path id="&lt;Path&gt;" class="s5" d="m-916.2-68.8c-2.1-1.6-4.3-2.3-6.8-0.8-2.4 1.6-11.5 9.5-13.5 10.3-1.9 0.7-15.2 4.6-17.6 5.6-2.3 1-4 2-4.5 4.8-0.5 2.7 0.2 4.5 4.4 4.5 4.2 0 61.5 0 63.2 0 1.7 0 1.2-5 0.5-8-0.6-2.9-1.1-8.2-1.8-10.3-0.8-2.1-1.6-4.1-2.7-4.1-1-0.1-4.5 3.7-10.7 3-6.2-0.7-8.2-3.1-10.5-5z"/>
				<path id="&lt;Path&gt;" class="s5" d="m-730.2-212.4c5 0.2 8.8 3.6 10 7.1 1.1 3.4 0.7 7.1 2.3 7.5 1.7 0.4 17.8-1.1 26.7-1 8.9 0.2 15.2 0 18.6 0.2 3.5 0.2 3.3-3.9 2-6.5-1.2-2.5-9-10.6-18.2-13.4-9.2-2.7-17.5-3.3-20.3-3.9-2.7-0.7-6.3-3.6-8.9-4.3-2.7-0.6-9.1-1.7-10.3-0.7-1.2 1-3.8 11.4-4.1 12.7-0.2 1.3 0.2 2.1 0.8 2.7z"/>
			</g>
		</g>
		<g id="&lt;Group&gt;">
			<g id="&lt;Group&gt;">
				<path id="&lt;Path&gt;" class="s1" d="m-623.4-140.4c0 15.1-12.2 27.3-27.3 27.3-15.1 0-27.3-12.2-27.3-27.3 0-15.1 12.2-27.4 27.3-27.4 15.1 0 27.3 12.3 27.3 27.4z"/>
				<g id="&lt;Group&gt;">
					<path id="&lt;Path&gt;" class="s2" d="m-632-156.5v10l5.9 8 2.7-3.6c-0.3-4.6-1.8-9.1-4.2-13z"/>
					<path id="&lt;Path&gt;" class="s2" d="m-629.6-123.1v-4.5l-9.6 3.1-5.8 8.1 4.3 1.4c4.3-1.7 8.1-4.5 11.1-8.1z"/>
					<path id="&lt;Path&gt;" class="s2" d="m-650.7-151.3l-10.3 7.5 3.9 12.1h12.8l3.9-12.1z"/>
					<path id="&lt;Path&gt;" class="s2" d="m-650.7-160.1l9.5-3.1-2.7-3.7q-3.3-0.9-6.8-0.9c-2.3 0-4.6 0.3-6.8 0.9l-2.7 3.7z"/>
					<path id="&lt;Path&gt;" class="s2" d="m-656.4-116.4l-5.9-8.1-9.5-3.1v4.5c3 3.6 6.8 6.4 11.1 8.1z"/>
					<path id="&lt;Path&gt;" class="s2" d="m-675.3-138.5l5.9-8v-10l-4.4 1.4c-2.5 3.9-3.9 8.4-4.2 13z"/>
				</g>
				<g id="&lt;Group&gt;">
					<path id="&lt;Path&gt;" class="s3" d="m-632.1-157l4 1.2c-3.6-5.3-8.9-9.1-15-10.9l2.4 3.4c4.5 1.8 8.2 5.8 8.6 6.3z"/>
					<path id="&lt;Path&gt;" class="s3" d="m-669.3-157c3-3.8 8-6 8.6-6.3l2.4-3.4c-6.1 1.8-11.4 5.6-15 10.9z"/>
					<path id="&lt;Path&gt;" class="s3" d="m-632.4-146.1l-7.5 2.4-4 12.2 4.7 6.5 9.6-3.1c0.4-0.7 3-5.2 3.2-9.9z"/>
					<path id="&lt;Path&gt;" class="s3" d="m-632.5-146.6v-10.1c-0.4-0.6-4-4.4-8.3-6.1l-9.7 3.1v8l10.4 7.5z"/>
					<path id="&lt;Path&gt;" class="s3" d="m-650.3-115.5c-2.9 0-5.3-0.5-5.7-0.6l-4 1.4c3 1.1 6.1 1.6 9.3 1.6 3.2 0 6.3-0.5 9.3-1.6l-4-1.4c-1.6 0.5-3.4 0.6-4.9 0.6z"/>
					<path id="&lt;Path&gt;" class="s3" d="m-623.4-140.4q0-0.5 0-0.9l-2.5 3.3c-0.3 4.9-2.9 9.6-3.3 10.1l0.1 4.2c3.7-4.7 5.7-10.7 5.7-16.7z"/>
					<path id="&lt;Path&gt;" class="s3" d="m-662.2-125l4.7-6.5-4-12.2-7.6-2.4-5.9 8.1c0 0.7 0.6 5.9 3.2 9.9z"/>
					<path id="&lt;Path&gt;" class="s3" d="m-655.9-116.5c0.7 0.1 5.9 1.1 10.4 0l5.9-8.3-4.7-6.4h-12.8l-4.7 6.4z"/>
					<path id="&lt;Path&gt;" class="s3" d="m-678-141.3q0 0.4 0 0.9c0 6 2 12 5.7 16.7l0.1-4.1c-2.6-4.1-3.3-9.5-3.3-10.2z"/>
					<path id="&lt;Path&gt;" class="s3" d="m-669-156.7l0.1 10.1 7.5 2.4 10.4-7.5 0.1-8-9.7-3.1c-0.6 0.3-5.4 2.5-8.4 6.1z"/>
				</g>
			</g>
			<g id="&lt;Group&gt;">
				<path id="&lt;Path&gt;" class="s4" d="m-521.5-141.9c0 0 9 16.6 12 20.3 2.9 3.7 7 5.6 10 6.9 3.1 1.3 13.8 6.1 13.8 6.1 0 0 10.7-9.1 10.7-23.8-3.5-1.5-8-4-8-4-1.4-4.8-7.5-27.3-7.5-27.3z"/>
				<path id="&lt;Path&gt;" class="s4" d="m-581.7-213c-2.6 1.5-11 6.6-12 8.1-1 1.5-7.9 19-7.9 19l28 14c2.1-4 3.1-9.7 3.1-9.7 3.4-1.3 6.1-2.5 6.1-2.5l11.7-2.5-18.2-31.1c0 0-4.4 1.8-10.8 4.7z"/>
				<path id="&lt;Path&gt;" class="s4" d="m-420.3-319.9c0 0 6.6 5.2 8.4 6.5 1.9 1.2 10.2 7.5 16.5 14.6 6.4 7.2 28.5 34.2 29.9 36.6 1.4 2.5 6.3 11.4 6.8 13.4 0.6 2.1 0.9 5.5 0.7 6.4-0.2 0.8-4 4.1-5.1 5.8-0.4 0.7-1.1 3.4-2.6 3.4-1.5-0.1-3.3-0.3-3.6-0.6-0.3-0.4-1.9-4-1.9-4 0 0-2.4-0.9-3.1-1.5-0.8-0.7-1.6-1.9-1.5-3.3 0.1-1.4 1.1-8.1 1-9.8 0-1.7-4.1-6.8-13.2-15.2-9.1-8.5-18.6-13-27.4-21.2-6.8-6.4-10.3-9.2-10.3-9.2-5.7-1.9-16-6.7-16-6.7l6.1-22.6c0 0 8.5 3.7 15.3 7.4z"/>
				<path id="&lt;Path&gt;" class="s4" d="m-576.8-335c0 0-8.3-1.5-10.5-1.7-2.2-0.2-12.5-1.8-21.5-5-9-3.3-41.3-16.4-43.7-17.9-2.4-1.4-10.9-7-12.4-8.5-1.4-1.5-3.3-4.4-3.6-5.2-0.3-0.9 1.5-5.6 1.7-7.6 0-0.8-0.7-3.5 0.6-4.2 1.3-0.7 3.1-1.4 3.5-1.2 0.4 0.2 3.6 2.6 3.6 2.6 0 0 2.5-0.4 3.4-0.2 1 0.2 2.3 1 2.9 2.2 0.6 1.2 2.9 7.6 3.8 9.1 0.8 1.5 6.8 4 18.8 7.1 12.1 3 22.6 2.5 34.2 5.5 9.1 2.3 13.5 3.1 13.5 3.1 6-1 17.3-1.7 17.3-1.7l5.4 22.8c0 0-9.3 0.7-17 0.8z"/>
				<path id="&lt;Path&gt;" class="s6" d="m-547.4-193.5c0 0 11.5 36.9 26.6 57.9 20.5-6.8 41.3-26.8 41.3-26.8l-8.5-10.6c0 0 1.3-30 1.3-30.5 3.2-10.1 5.6-24 5.6-24h-66.3z"/>
				<path id="&lt;Path&gt;" class="s5" d="m-554.6-230.1c-10.9 5.5-26.6 13.6-27.1 14.6-0.5 1 0 2.5 0 2.5 0 0 13 12 21.8 27.1l-4.5 1.8c0 0 16.6 15.2 18.2 16 1.7 0.7 11.4-7.7 16.9-14 25.8-8.7 37.9-19.2 41.8-25.4 3.8-6.3 7.1-19.9 7.4-28 0.3-8.1-25.4-13.1-40.7-12-15.2 1.1-25.5 7.8-33.8 17.4z"/>
				<path id="&lt;Path&gt;" class="s6" d="m-559.9-185.9l-4.5 1.8c0 0 16.6 15.2 18.2 16-6.8-9.5-13.7-17.8-13.7-17.8z"/>
				<g id="&lt;Group&gt;">
					<path id="&lt;Path&gt;" class="s12" d="m-521.3-361.4c0 0-16.7 0-20.2 0-3.5 0-34.3 0.9-34.3 0.9 0 0-2.5 13-1.6 30.1l25.9 4.7c0 0-1.8 14.9-1.1 27.6 0.6 12.7 1 23.8 1 23.8 0 0-5.4 38.9-5.4 41 0 2.2 2.4 3.2 2.4 3.2 0 0 15.9-12 42-11.5 26.1 0.5 32.5 6.1 32.5 6.1 0 0 1.5-1.6 1.6-2.4 0-0.9-4.9-19.8-4.9-19.8 0 0 5.7-30.7 16.4-49.2 15.7 4.8 33.6 12.5 33.6 12.5 0 0 10-8 14.1-26.4 0 0-34.1-19.8-37.1-20.8-3-1-39.4-13.9-44.3-15.4-4.8-1.5-20.6-4.4-20.6-4.4z"/>
					<path id="&lt;Path&gt;" class="s13" d="m-577.5-340.6c-0.1 3.2-0.1 6.6 0.1 10.2l25.9 4.7 3.2-18.1z"/>
					<g id="&lt;Group&gt;">
						<path id="&lt;Path&gt;" class="s5" d="m-540.4-358.5c7.5 0.4 17.2 1 17.4 1q0 0 0 0l19.9 4.9c0.3 0.1 28.4 9.8 41.5 14.1l0.8-1.8c-13-4.3-41.3-14.1-41.7-14.3l-20.2-4.8c-0.1 0-9.7-0.7-17.3-1.1z"/>
						<path id="&lt;Path&gt;" class="s5" d="m-523.6-356.1c-0.1 0-9.5-0.7-17.1-1.1l-0.4 2c7.5 0.4 17 1.1 17.2 1.1q0 0 0 0l19.9 4.8c0.3 0.1 27.7 9.5 41 14l0.8-1.9c-13.2-4.4-40.8-13.9-41.2-14z"/>
					</g>
					<path id="&lt;Path&gt;" class="s10" d="m-524.5-363c0 0-1 12.1-1.1 14.1-0.2 1.9-0.4 7.5 7 8 7.3 0.6 18.7-9.1 19.2-12.9 0.5-3.7 1-12.9 1-12.9h-26z"/>
					<path id="&lt;Path&gt;" class="s5" d="m-570-360.7c-3.5 0.1-5.8 0.2-5.8 0.2 0 0-2.5 13-1.6 30.1l5.6 1.1c-0.4-11.6 1.1-25.5 1.8-31.4z"/>
					<path id="&lt;Path&gt;" class="s5" d="m-425.4-324.3c-1.7 5.9-5.6 17.4-13.4 27.6 3.3 1.4 5.4 2.3 5.4 2.3 0 0 10-8 14.1-26.4 0 0-2.5-1.4-6.1-3.5z"/>
					<path id="&lt;Path&gt;" class="s13" d="m-492.9-277c-0.1 1.3 2.9 10.7 2.9 10.7l-10.9-11.2c0 0 7 14.1 8.9 16.6 1.3 1.8 7.4 7.3 10.4 10.1-1-3.8-1.8-6.9-1.8-6.9 0 0 5.7-30.7 16.4-49.2l-18.8-4.5z"/>
				</g>
				<g id="&lt;Group&gt;">
					<path id="&lt;Path&gt;" class="s4" d="m-536.6-371.7c1 4.9-1.1 6.1 1.5 11 2.5 4.8 6.5 9.1 7.7 10.4 1.3 1.3 4.7 2.2 8.5 1.5 3.8-0.6 16-6.1 20.1-15.7 4.8-1.8 9.8-5.3 8.8-13.6 1.1-3.5 5.5-30.9-12.7-34.4-18.1-3.5-26.1 2.6-29.8 9.6-3.6 7.1-4.8 16.9-4.8 19.5-0.1 2.7-0.1 7.5 0.7 11.7z"/>
					<path id="&lt;Path&gt;" class="s5" d="m-537.3-384.3c0 0 6.2 3.1 7.7 3.5 1.5 0.3 20.6-1.8 22-2 1.3-0.2 3.2 0.7 3.5 2.9 0.2 2.1 3.1 2.1 3.3 3.4 0.2 1.3-0.5 5-0.5 5 0 0 2.5-0.4 2.9-0.8 0.3-0.4 0.1-3.2 2.6-6.3 2.4-3.1 5.9-1.2 5.9 1.7 1.3-3.1 4.7-10.4 3.9-20-0.7-7.9-8.8-17.9-22.7-19-14-1.1-21.6 4.5-25.8 13.1-4.1 8.5-3.5 15.5-2.8 18.5z"/>
				</g>
				<path id="&lt;Path&gt;" class="s12" d="m-572.7-173.8c-4.1-7.9-15.8-17.1-28.9-13.8 0 0-9.8 23-21.4 40.8-11.7 17.9-19.3 27.9-20.8 29.5-1.5 1.7-5.4 6.9-0.7 11.4 4.6 4.5 15.8 3 18.3 0 2.5-3 2.7-5.2 5.2-8.1 2.5-2.9 31.3-29.2 38.5-39.4 7.3-10.3 10-19.2 10-19.2z"/>
				<g id="&lt;Group&gt;">
					<path id="&lt;Path&gt;" class="s5" d="m-577-162.3q1.4-2.6 2.3-4.7c-7.5-14.5-21.8-16.3-28.8-16.3q-0.8 1.7-1.9 4c5.1-0.4 21.6-0.2 28.4 17z"/>
					<path id="&lt;Path&gt;" class="s5" d="m-574.4-167.7q0.6-1.5 1.1-2.5c-7.6-14.8-22.7-16.1-29-15.9q-0.3 0.8-0.9 2c5.3-0.4 21.6-0.1 28.8 16.4z"/>
				</g>
				<path id="&lt;Path&gt;" class="s5" d="m-634.6-112.3c-2.8-2-5.4-8.5-6.4-8.5-1-0.1-4 1.8-6.4 3-2.4 1.3-15.7 5.4-21.1 6-5.3 0.7-12.9 2.1-17 2.8-4.2 0.6-4.7 3.8-1.3 7.6 3.4 3.9 10.9 6 18.8 8 7.8 2 16.8 2.5 19 3 2.1 0.5 13.6 4 16.4 4.9 2.7 0.8 6.1-0.3 7-3.4 0.9-3.2 2.3-15 2.2-16.5-0.1-1.5-0.8-2.3-1.3-2.5-0.6-0.1-5.2-0.9-9.9-4.4z"/>
				<path id="&lt;Path&gt;" class="s12" d="m-486.9-109.1c0 0 0.2 1 1.6 1.7 1.4 0.7 28.9 12.7 46 21.5 17.1 8.7 18.2 10.3 21.1 12 2.9 1.6 9.2-3.1 7.3-10.2-1.8-7.1-6-10-8.7-11.2-2.8-1.1-13.9-9.3-22.1-16.7-8.3-7.4-14.3-15-19.9-17.7-5.7-2.7-11.6-3.2-13.8-2.8 0.1 4.5-6.3 16.7-11.5 23.4z"/>
				<g id="&lt;Group&gt;">
					<path id="&lt;Path&gt;" class="s5" d="m-464.9-131q-2.1-0.7-3.9-1.1c-1 11-5.2 20.5-12 26.7q1.7 0.8 3.9 1.8c6.7-6.8 10.9-16.4 12-27.4z"/>
					<path id="&lt;Path&gt;" class="s5" d="m-470.9-132.4q-1.1-0.2-2-0.2c-1.2 10.4-5.4 19.4-11.8 25.5q0.7 0.3 2 0.9c6.4-6.5 10.5-15.6 11.8-26.2z"/>
				</g>
				<path id="&lt;Path&gt;" class="s5" d="m-422.3-76.6c0.6 1.1 9.4 13.3 11.8 17 2.3 3.7 5.9 9.8 6.4 12.7 0.5 2.8 1.8 2.5 3.3 2.4 1.5-0.2 7.7-5.2 6.9-14.4-0.7-9.1-3.2-13.1-4.5-15-1.2-2-3.6-6.5-3.8-8.7-0.3-2.2-1.9-11.7-2.8-13.2-0.9-1.6-2.8-2.3-4.2-2.2-1.5 0.2-10 2.9-10 2.9 0 0-0.2 1.3 1.2 3.6 1.3 2.2 1.5 7.3 0.5 9.6-1 2.3-5.6 3.7-4.8 5.3z"/>
			</g>
		</g>
		<g id="&lt;Group&gt;">
			<g id="&lt;Group&gt;">
				<path id="&lt;Path&gt;" class="s4" d="m-118.6-329.7c0 0 7.7 4.8 9.8 5.9 2.1 1 11.7 6.7 19.3 13.6 7.6 6.8 34.4 32.8 36.2 35.2 1.8 2.5 8 11.4 8.8 13.5 0.9 2.1 1.6 5.7 1.5 6.6 0 1-3.7 4.9-4.7 6.9-0.3 0.7-0.7 3.7-2.3 3.8-1.6 0.2-3.6 0.2-4-0.2-0.3-0.3-2.5-3.9-2.5-3.9 0 0-2.6-0.7-3.4-1.3-0.9-0.6-1.9-1.8-2-3.3-0.1-1.5 0.2-8.7-0.1-10.5-0.2-1.9-5.2-6.8-15.9-14.6-10.7-7.9-21.4-11.6-31.6-19.2-8.1-6-12.1-8.5-12.1-8.5-6.4-1.4-17.9-5.3-17.9-5.3l3.8-24.7c0 0 9.5 2.9 17.1 6z"/>
				<path id="&lt;Path&gt;" class="s4" d="m-244.2-299.2c0 0-7.9 3.1-9.9 4.1-2 0.9-11.7 5-21.1 6.9-9.4 1.9-44.1 7.6-46.9 7.6-2.9 0-13.1-0.3-15.1-0.9-2.1-0.5-5.2-2-5.9-2.6-0.7-0.6-1.6-5.5-2.5-7.4-0.4-0.6-2.4-2.6-1.6-3.9 0.7-1.3 1.9-2.8 2.3-2.9 0.5 0 4.5 0.4 4.5 0.4 0 0 1.9-1.6 2.8-1.9 1-0.4 2.5-0.4 3.6 0.3 1.2 0.8 6.5 5 8 5.9 1.6 0.8 8-0.2 20-3.8 11.9-3.7 20.7-9.8 32.2-13.2 9-2.8 13.2-4.4 13.2-4.4 4.6-4 14-10.5 14-10.5l16.5 16.7c0 0-7.5 5.5-14.1 9.6z"/>
				<path id="&lt;Path&gt;" class="s5" d="m-46.9-176.4c0 0 11.5 0.7 18.1 1.2 6.5 0.4 10.3 1.4 14.2 2 4 0.6 7.2 1.2 7.8 0.4 0.6-0.8 1.7-6.9 0-9.9-1.7-3-8.4-10.7-14.6-12.1-6.2-1.4-11.8-1.3-16.2-2.6-4.4-1.4-10.5-4.4-13.1-4.7-2.7-0.4-5.9 1.3-7.1 2.6-1.2 1.4-4.1 9.5-4.5 11.6-0.3 2 4.2 10.7 15.4 11.5z"/>
				<path id="&lt;Path&gt;" class="s4" d="m-142.5-163.8c0 0 21.2 14.3 28 17.6 6.9 3.3 12.7 3.4 18.5 0 5.8-3.4 15.5-11.1 15.5-11.1 0 0-2-14.2-16.5-21.2l-3.5 2.6-14-16.8z"/>
				<path id="&lt;Path&gt;" class="s4" d="m-253.4-173.5c0 0-6.1 15-6.6 18.8-0.4 3.8-1.6 9.6 2.5 15 4.1 5.3 10 14.3 10 14.3l24.4-14.7-4.5-5.7 5.7-5.9c0 0 7.1-9.5 7.1-9.9 0-0.5-11.6-11.2-20.8-14.3-9.3-3.1-17.8 2.4-17.8 2.4z"/>
				<g id="&lt;Group&gt;">
					<path id="&lt;Path&gt;" class="s5" d="m-234.9-210.4c-6.6 15.1-18.5 36.9-18.5 36.9 0 0 16.1 0.3 35.1 15.2l-3.6 6.6c0 0 5.3 1.6 15.2-0.4 1.6-4 2.4-11 2.4-11l27.8-20.7c0 0 29.1 19.4 29.8 19.8 1.4 1.5 3.3 4.5 3.3 4.5 0 0 15.5-4.5 23.1-11.3 7.5-6.9 15.4-20.8 15.4-20.8l-11.1-7.8-33.9-41.6-5.3-9.1c0 0-15.7-2.9-39.1 6.4-23.3 9.3-34.2 19.6-40.6 33.3z"/>
					<g id="&lt;Group&gt;">
						<path id="&lt;Path&gt;" class="s6" d="m-206.8-152.1c0.1 0-8.2-5.6-11.5-6.2l-3.6 6.6c0 0 5.3 1.6 15.2-0.4z"/>
						<path id="&lt;Path&gt;" class="s6" d="m-208-202l3.7 38.9 27.8-20.7z"/>
					</g>
					<path id="&lt;Path&gt;" class="s6" d="m-149.9-241l-5.3-9.1c0 0-15.7-2.9-39.1 6.4-23.3 9.3-34.2 19.6-40.6 33.3 0 0 43.9-23.7 88-27z"/>
				</g>
				<g id="&lt;Group&gt;">
					<path id="&lt;Path&gt;" class="s11" d="m-213.6-359.2c0 0-21.3 8.3-22.2 9.1-1 0.8-27 34.1-27 34.1 2.1 8.4 4 17.3 14.9 23.3l5.5-3.9c0 0 2.1 25.3 3.6 40.2 1.5 14.8 3.6 26.5 3.6 26.5 0 0-1.9 10.3-2 12-0.1 1.7 2.3 7.5 2.3 7.5 0 0 39.2-28.4 81.2-35.5l3.8 4.9c0 0 5.4-6.5 4.5-7.5-1-1.1-16.6-23.8-16.6-23.8l5.4-35.7 28.6 10.3c0 0 11-14.3 14.8-32.5 0 0-41.2-21.5-44.4-22.6-3.2-1.1-35.1-11.5-36.6-11.8-1.5-0.2-14.5 3.5-19.4 5.4z"/>
					<path id="&lt;Path&gt;" class="s5" d="m-208.4-339.4c6.9 0 16.7-8.8 18.8-14.8 2.1-6 0.7-7.8 0-9-2.6-0.8-4.3-1.3-4.6-1.4-1.5-0.2-14.5 3.5-19.4 5.4 0 0-1.5 0.6-3.7 1.4-0.1 2.7-0.1 5.4 0.2 7.7 0.6 5.3 1.7 10.7 8.7 10.7z"/>
					<path id="&lt;Path&gt;" class="s14" d="m-162-272.3c0 0-19.5-6.9-34.1-20.4 12.2 5.4 35.4 11.6 35.4 11.6z"/>
					<path id="&lt;Path&gt;" class="s14" d="m-261.5-310.9c1.9 6.8 4.9 13.4 13.6 18.2l5.5-3.9c0 0 1.9-30.6 3.9-42.8 0 0-13.7 16.1-23 28.5z"/>
					<path id="&lt;Path&gt;" class="s14" d="m-156.6-308c0 0-7-7.5-11.8-14.7 2.4 9.2 9.8 27.8 9.8 27.8z"/>
				</g>
				<g id="&lt;Group&gt;">
					<path id="&lt;Path&gt;" class="s10" d="m-215.1-352.1c0 0 1.3 6.3 1.9 7.9 0.5 1.7 3.7 3.6 7.6 1.8 3.9-1.8 13.9-11.2 13.9-17.9 0-6.2-1.3-13.6-1.3-13.6h-22.1z"/>
					<path id="&lt;Path&gt;" class="s4" d="m-233-364.8c2.7 4.6 1.1 6.6 5.4 10.5 4.3 4 10 6.8 11.7 7.7 1.7 0.8 5.4 0.5 9-1.6 3.7-2 13.9-12 14.6-23.1 4.1-3.6 7.9-8.9 3.9-16.9-0.2-3.9-5.8-33.1-25.3-30-19.6 3.1-25.4 12.1-26.5 20.6-1.1 8.4 1.3 18.6 2.2 21.3 0.9 2.8 2.6 7.6 5 11.5z"/>
					<path id="&lt;Path&gt;" class="s5" d="m-238.3-377.3c0 0 7.4 0.9 9 0.8 1.6-0.2 20-9.3 21.4-10 1.3-0.8 3.5-0.5 4.5 1.6 1.1 2.1 4 1 4.6 2.2 0.7 1.3 1.4 5.2 1.4 5.2 0 0 2.4-1.3 2.6-1.8 0.1-0.6-1-3.3 0.3-7.3 1.3-4 5.5-3.3 6.6-0.5 0.2-3.6 1-12.1-3.4-21.4-3.6-7.7-15.3-14.9-29.8-10.9-14.4 3.9-20.1 12.4-21.1 22.5-1.1 10.1 2.1 16.9 3.9 19.6z"/>
				</g>
				<path id="&lt;Path&gt;" class="s11" d="m-222.8-141.2c-2.7-0.5-18.9 1.3-26.6 14.9 0 0 40 50.4 52.1 63.3 2.2 5.5 8.7 8.8 13.7 7.4 5.1-1.4 8.2-5.6 7.7-7-0.6-1.4-6.1-9.2-9-12.4-2.9-3.1-13.4-24.1-16.2-31.1-2.9-6.9-9.8-26.2-21.7-35.1z"/>
				<path id="&lt;Path&gt;" class="s5" d="m-193.2-64.2c-1.7-1.3-3.5-1.9-5.5-0.6-1.9 1.3-9.3 7.6-10.9 8.3-1.6 0.6-12.4 3.7-14.3 4.5-1.9 0.9-3.3 1.7-3.7 3.9-0.4 2.3 0.1 3.7 3.6 3.7 3.4 0 49.9 0 51.3 0 1.4 0 0.9-4 0.4-6.5-0.5-2.4-0.9-6.7-1.5-8.4-0.7-1.7-1.3-3.3-2.1-3.3-0.9-0.1-3.7 3-8.7 2.4-5.1-0.5-6.7-2.5-8.6-4z"/>
				<path id="&lt;Path&gt;" class="s11" d="m-81.3-156.6c0 0 1.3 0.4 3.2-1.3 1.9-1.6 19.7-13 26.6-15.7 6.8-2.8 7.9-2.9 8.3-3.4 0.4-0.6 2.9-12.6-9.2-14.2-11.8 0.6-20.1 1.4-24.6 2.1-8.7 1.5-21.1 4.7-20.7 11.2 2.3 0.3 14.7 7.7 16.4 21.3z"/>
			</g>
			<g id="&lt;Group&gt;">
				<path id="&lt;Path&gt;" class="s1" d="m-137.6-71.8c0 15.1-12.2 27.4-27.3 27.4-15.1 0-27.4-12.3-27.4-27.4 0-15.1 12.3-27.3 27.4-27.3 15.1 0 27.3 12.2 27.3 27.3z"/>
				<g id="&lt;Group&gt;">
					<path id="&lt;Path&gt;" class="s2" d="m-146.2-87.8v10l5.9 8 2.7-3.6c-0.3-4.7-1.8-9.2-4.3-13.1z"/>
					<path id="&lt;Path&gt;" class="s2" d="m-143.8-54.4l-0.1-4.5-9.5 3-5.8 8.1 4.3 1.5c4.3-1.7 8.1-4.5 11.1-8.1z"/>
					<path id="&lt;Path&gt;" class="s2" d="m-164.9-82.6l-10.3 7.5 3.9 12.1h12.8l3.9-12.1z"/>
					<path id="&lt;Path&gt;" class="s2" d="m-164.9-91.4l9.5-3.2-2.7-3.6q-3.3-0.9-6.8-0.9-3.5 0-6.9 0.9l-2.6 3.6z"/>
					<path id="&lt;Path&gt;" class="s2" d="m-170.6-47.8l-5.9-8.1-9.5-3v4.5c2.9 3.6 6.8 6.4 11.1 8.1z"/>
					<path id="&lt;Path&gt;" class="s2" d="m-189.5-69.8l5.9-8-0.1-10-4.3 1.3c-2.5 3.9-3.9 8.4-4.2 13.1z"/>
				</g>
				<g id="&lt;Group&gt;">
					<path id="&lt;Path&gt;" class="s3" d="m-146.3-88.4l4 1.3c-3.6-5.3-8.9-9.2-15-10.9l2.4 3.4c4.5 1.8 8.2 5.7 8.6 6.2z"/>
					<path id="&lt;Path&gt;" class="s3" d="m-183.6-88.4c3.1-3.7 8-6 8.6-6.2l2.5-3.4c-6.1 1.7-11.5 5.6-15.1 10.9z"/>
					<path id="&lt;Path&gt;" class="s3" d="m-146.6-77.5l-7.5 2.5-4 12.2 4.7 6.4 9.6-3.1c0.4-0.6 2.9-5.1 3.2-9.8z"/>
					<path id="&lt;Path&gt;" class="s3" d="m-146.7-77.9v-10.2c-0.5-0.5-4-4.3-8.4-6.1l-9.6 3.2v7.9l10.4 7.6z"/>
					<path id="&lt;Path&gt;" class="s3" d="m-164.6-46.8c-2.8 0-5.2-0.5-5.6-0.6l-4 1.3c2.9 1.1 6.1 1.7 9.3 1.7 3.2 0 6.3-0.6 9.3-1.7l-4-1.3c-1.7 0.4-3.4 0.6-5 0.6z"/>
					<path id="&lt;Path&gt;" class="s3" d="m-137.6-71.8q0-0.4 0-0.9l-2.5 3.4c-0.3 4.8-2.9 9.5-3.3 10.1l0.1 4.2c3.7-4.8 5.7-10.7 5.7-16.8z"/>
					<path id="&lt;Path&gt;" class="s3" d="m-176.4-56.4l4.7-6.4-4-12.2-7.6-2.5-6 8.2c0.1 0.7 0.7 5.9 3.2 9.8z"/>
					<path id="&lt;Path&gt;" class="s3" d="m-170.1-47.9c0.7 0.2 5.8 1.2 10.4 0l5.9-8.2-4.7-6.4h-12.8l-4.7 6.4z"/>
					<path id="&lt;Path&gt;" class="s3" d="m-192.2-72.7q-0.1 0.5-0.1 0.9c0 6.1 2.1 12 5.8 16.8v-4.2c-2.6-4.1-3.2-9.4-3.3-10.1z"/>
					<path id="&lt;Path&gt;" class="s3" d="m-183.2-88.1l0.1 10.2 7.5 2.4 10.4-7.6v-7.9l-9.6-3.2c-0.7 0.3-5.4 2.5-8.4 6.1z"/>
				</g>
			</g>
		</g>
		<g id="&lt;Group&gt;">
			<g id="&lt;Group&gt;">
				<path id="&lt;Path&gt;" class="s1" d="m32.7-71.8c0 15.1-12.2 27.4-27.3 27.4-15.1 0-27.4-12.3-27.4-27.4 0-15.1 12.3-27.3 27.4-27.3 15.1 0 27.3 12.2 27.3 27.3z"/>
				<g id="&lt;Group&gt;">
					<path id="&lt;Path&gt;" class="s2" d="m24.1-87.8v10l5.9 8 2.7-3.6c-0.3-4.7-1.8-9.2-4.3-13.1z"/>
					<path id="&lt;Path&gt;" class="s2" d="m26.5-54.4l-0.1-4.5-9.5 3-5.8 8.1 4.3 1.5c4.3-1.7 8.1-4.5 11.1-8.1z"/>
					<path id="&lt;Path&gt;" class="s2" d="m5.4-82.6l-10.3 7.5 3.9 12.1h12.8l3.9-12.1z"/>
					<path id="&lt;Path&gt;" class="s2" d="m5.4-91.4l9.5-3.2-2.7-3.6q-3.3-0.9-6.8-0.9-3.5 0-6.9 0.9l-2.6 3.6z"/>
					<path id="&lt;Path&gt;" class="s2" d="m-0.3-47.8l-5.9-8.1-9.5-3v4.5c2.9 3.6 6.8 6.4 11.1 8.1z"/>
					<path id="&lt;Path&gt;" class="s2" d="m-19.2-69.8l5.9-8-0.1-10-4.3 1.3c-2.5 3.9-3.9 8.4-4.2 13.1z"/>
				</g>
				<g id="&lt;Group&gt;">
					<path id="&lt;Path&gt;" class="s3" d="m24-88.4l4 1.3c-3.6-5.3-8.9-9.2-15-10.9l2.4 3.4c4.5 1.8 8.2 5.7 8.6 6.2z"/>
					<path id="&lt;Path&gt;" class="s3" d="m-13.3-88.4c3.1-3.7 8-6 8.6-6.2l2.5-3.4c-6.1 1.7-11.5 5.6-15.1 10.9z"/>
					<path id="&lt;Path&gt;" class="s3" d="m23.7-77.5l-7.5 2.5-4 12.2 4.7 6.4 9.6-3.1c0.4-0.6 2.9-5.1 3.2-9.8z"/>
					<path id="&lt;Path&gt;" class="s3" d="m23.6-77.9v-10.2c-0.5-0.5-4-4.3-8.4-6.1l-9.6 3.2v7.9l10.4 7.6z"/>
					<path id="&lt;Path&gt;" class="s3" d="m5.7-46.8c-2.8 0-5.2-0.5-5.6-0.6l-4 1.3c2.9 1.1 6.1 1.7 9.3 1.7 3.2 0 6.3-0.6 9.3-1.7l-4-1.3c-1.7 0.4-3.4 0.6-5 0.6z"/>
					<path id="&lt;Path&gt;" class="s3" d="m32.7-71.8q0-0.4 0-0.9l-2.5 3.4c-0.3 4.8-2.9 9.5-3.3 10.1l0.1 4.2c3.7-4.8 5.7-10.7 5.7-16.8z"/>
					<path id="&lt;Path&gt;" class="s3" d="m-6.1-56.4l4.7-6.4-4-12.2-7.6-2.5-6 8.2c0.1 0.7 0.7 5.9 3.2 9.8z"/>
					<path id="&lt;Path&gt;" class="s3" d="m0.2-47.9c0.7 0.2 5.8 1.2 10.4 0l5.9-8.2-4.7-6.4h-12.8l-4.7 6.4z"/>
					<path id="&lt;Path&gt;" class="s3" d="m-21.9-72.7q-0.1 0.5-0.1 0.9c0 6.1 2.1 12 5.8 16.8v-4.2c-2.6-4.1-3.2-9.4-3.2-10.1z"/>
					<path id="&lt;Path&gt;" class="s3" d="m-12.9-88.1l0.1 10.2 7.5 2.4 10.4-7.6v-7.9l-9.6-3.2c-0.7 0.3-5.4 2.5-8.4 6.1z"/>
				</g>
			</g>
			<g id="&lt;Group&gt;">
				<path id="&lt;Path&gt;" class="s4" d="m254.2-321.3c0 0 9.3 0.4 11.8 0.7 2.4 0.3 13.9 1.1 24.4-0.3 10.6-1.3 48.7-7.7 51.7-8.8 3-1 13.5-4.9 15.4-6.2 2-1.3 4.7-4 5.2-4.8 0.5-0.9-0.3-6.4 0-8.6 0.2-0.9 1.6-3.6 0.3-4.7-1.3-1.1-3-2.3-3.5-2.2-0.5 0.1-4.5 1.9-4.5 1.9 0 0-2.6-0.9-3.7-0.9-1 0-2.7 0.4-3.6 1.6-0.9 1.2-5 7.6-6.3 9-1.2 1.4-8.3 2.7-22.1 3.1-13.8 0.4-25.1-2.7-38.3-2.3-10.4 0.4-15.3 0.2-15.3 0.2-6.3-2.6-18.4-6-18.4-6l-11.3 23.3c0 0 9.8 3.1 18.2 5z"/>
				<path id="&lt;Path&gt;" class="s4" d="m117.7-322.6c0 0-6.7 6.6-8.6 8.2-1.9 1.5-10.3 9.4-16.5 18-6.2 8.6-27.6 40.9-28.9 43.7-1.2 2.9-5.5 13.3-5.9 15.6-0.4 2.3-0.3 6.1 0 7.1 0.2 0.9 4.8 4.1 6.3 5.8 0.4 0.8 1.5 3.6 3.2 3.5 1.6-0.2 3.6-0.7 3.9-1.1 0.3-0.5 1.7-4.6 1.7-4.6 0 0 2.5-1.3 3.2-2 0.7-0.8 1.5-2.3 1.3-3.8-0.3-1.5-2.1-8.8-2.3-10.7-0.2-1.9 3.8-8 12.9-18.3 9.1-10.3 19.1-16.4 27.8-26.4 6.8-7.9 10.3-11.4 10.3-11.4 6.2-2.7 17-9.2 17-9.2l-9.4-24.2c0 0-8.9 5.1-16 9.8z"/>
				<path id="&lt;Path&gt;" class="s15" d="m160-146.5c0 0 5.5 2.8 14.8-2.2 9.3-5 73.6-41.8 76.7-43.5 3.1-1.8 0.5-9.5-3.4-11-4-1.6-7.6 0-9.5 0.5-1.9 0.5-23.5 8.6-32.9 10.5-9.3 1.8-17-0.1-33.1 7.4-16.2 7.5-20.2 18.8-19.5 25.5 0.8 6.6 4.8 12.2 6.9 12.8z"/>
				<path id="&lt;Path&gt;" class="s10" d="m153.1-159.3c0.8 6.6 4.8 12.2 6.9 12.8 0 0 4.6 2.3 12.4-1.1 1.9-8.3 4.1-23.6-1.3-36.5-14.9 7.5-18.7 18.3-18 24.8z"/>
				<path id="&lt;Path&gt;" class="s4" d="m113.7-176.1c-2.3 2.7-6.5 9.1-7.7 11.1-1.2 2-7.1 11.3-7.1 11.3l23.7 18.7c0 0 3.2-7.2 4-8.8 0.9-1.5 9.9-10 9.9-10l8-5.7c0 0-4.6-14.3-24.7-22.2z"/>
				<g id="&lt;Group&gt;">
					<path id="&lt;Path&gt;" class="s6" d="m147.7-153.2c0 0 2.1 5.6 12 11 12-18.5 19-42.3 19-42.3h-11.7z"/>
					<path id="&lt;Path&gt;" class="s5" d="m132.7-224.7c0 0-1 11.4-0.8 18.1-7.4 11.6-16.3 26.2-18.2 30.5 0 0 3.3-0.4 8 3.6 4.8 4.1 16.7 16.3 16.7 16.3l-1.9 2.4c0 0 6.8 6.6 17.2 8.4 1.9-3.8 8.3-16.4 8.3-16.4 0 0 34.3-31.5 40.9-41.5 6.6-10 7.8-27.1 7.8-27.1h-50.3z"/>
					<path id="&lt;Path&gt;" class="s6" d="m136.5-153.8c0 0 6.8 6.6 17.2 8.4l-15.3-10.8z"/>
					<path id="&lt;Path&gt;" class="s6" d="m132.7-224.7c0 0-1 11.4-0.8 18.1l14.4-20.9z"/>
				</g>
				<path id="&lt;Path&gt;" class="s16" d="m144.3-354.2c-11.9 14-32.7 34.5-32.7 34.5 0 0 7.8 15 18.9 21.3 9.9-6.1 19.1-15.9 19.1-15.9 0 0 2-27.1-5.3-39.9z"/>
				<path id="&lt;Path&gt;" class="s15" d="m162.2-363.9c0 0-18 7.1-17.9 9.7 0 2.6-8.3 57.8-7 95.3-3.5 20.1-7.3 36.7-6.7 37.5 0.7 0.7 12.3 3.1 34.5-1.3 22.1-4.4 25.7-5.1 27.8-4.8 2.1 0.2 18 6.7 19.2 6.2 1.1-0.5 3.9-17.4 0-44.1 9.6-21.7 21.1-49.7 21.1-49.7 0 0 23.1-1 24.5-1.2 1.4-0.1 7.8-8.1 9.2-18.1 1.4-10 2-13.5 1.1-13.6-0.9-0.1-38.3-7-41.7-7.8-3.3-0.7-36.1-10.7-36.1-10.7 0 0-13-6.4-28 2.6z"/>
				<path id="&lt;Path&gt;" class="s16" d="m212.1-265.4c9.6-21.7 21.1-49.7 21.1-49.7 0 0-18.8 8.3-23.4 10.9-1 10 2.3 38.8 2.3 38.8z"/>
				<path id="&lt;Path&gt;" class="s8" d="m190.2-366.5c0 0-13-6.4-28 2.6 0 0-1.4 0.5-3.4 1.4-0.5 2.6-0.6 6 0.4 10l4.9 14.9c0 0 6.5 0.5 11.8 1.5 9.6-3.7 22.8-15.1 23.6-27.6-5.4-1.6-9.3-2.8-9.3-2.8z"/>
				<path id="&lt;Path&gt;" class="s10" d="m164.4-350.5c1.4 3.1 3.9 8.9 5.3 9 1.5 0.1 11.2-3.6 16.3-9.8 5.1-6.2 4.7-13.4 4.7-13.4l-6.6-4z"/>
				<g id="&lt;Group&gt;">
					<path id="&lt;Path&gt;" class="s4" d="m146.1-386.2c-0.4 4.6 0.2 10.4 1 13.6 0.7 3.3 0.9 3.7 0.9 5.6 0 1.9-1.2 7.2-0.7 7.8 0.4 0.6 5 1.2 5 1.2 0 0 3.9 8.9 4.5 10.6 0.6 1.7 2.1 2.1 4 1.6 1.9-0.5 15.6-7.2 19.2-11.2 3.5-3.9 5.1-10.2 5.1-10.2 0 0 4.5 0.4 7.7-6.7 3.1-7 3.4-25.8-5.2-33.6-8.5-7.7-25.2-6.4-32.4 0-7.2 6.5-8.4 14.4-9.1 21.3z"/>
					<path id="&lt;Path&gt;" class="s5" d="m146-384.1c0 0 10.2-6 12.6-7 2.4-0.9 3.5-0.5 4.1 0.4 0.6 0.9 1.8 5.8 2.7 6.1 0.8 0.4 7.3-0.6 7.7-0.1 0.4 0.5 4.2 11 4.2 11 0 0 3-1 3.2-1.3 0.1-0.3 0.2-4.2 1-5.6 0.7-1.4 3.6-3 4.4-2.5 0.7 0.5 4.2 2.6 4.6 5.4 0.4 2.7-2.8 9.2-5.2 10.5 1.8 0.9 5.4 2.5 5.4 2.5 0 0 5.4-6.4 7.1-16.6 1.7-10.3-1.4-20.2-3.3-23.2-1.8-3.1-5.3-4.9-5.3-4.9 0 0-8.4-6.1-15-6-6.7 0.1-15.4 1.6-22.4 7.8-6.9 6.2-7.7 13.4-7.5 15.9 0.2 2.4 1.7 7.6 1.7 7.6z"/>
				</g>
				<path id="&lt;Path&gt;" class="s8" d="m164.1-338.6q-0.2 0-0.4 0c-8.2 0-17 3.8-22 6.5q-0.2 1.2-0.3 2.5c4.6-2.5 13.9-6.9 22.3-6.9q0.2 0 0.4 0c11.8 0.2 31.2 4.1 63.1 35.8q0.4-1.1 0.9-2.1c-32.1-31.6-51.9-35.6-64-35.8z"/>
				<path id="&lt;Path&gt;" class="s16" d="m153.9-237.2c0 0-11-14-16.6-39.4-0.1 6.2-0.2 12.1 0 17.7q0 0.3-0.1 0.5c2.9 6.8 7.9 15.3 16.7 21.2z"/>
				<path id="&lt;Path&gt;" class="s15" d="m99.6-153.9c7.8-0.7 19.9 8.5 23.5 17.6-4.5 12.1-11.4 20.8-22 30.8-10.7 10-42.9 40-45.5 43.1-2.6 3.1-4.8 5.1-8 5-3.3-0.2-12-6.5-7.7-13.3 4.3-6.7 32.5-45.4 39.5-56.3 7-10.9 18.4-25.3 18.9-25.9 0.5-0.7 0.4-1 1.3-1z"/>
				<path id="&lt;Path&gt;" class="s5" d="m48.5-66.7c-0.5-3.7-1.9-8.7-5.1-9-3.3-0.3-12.4 2.1-19.2 2.5-6.8 0.5-13.6 0.5-15.5 0.2-1.9-0.2-4.1 2.4-3.1 5.4 1.1 2.9 3.7 7.7 11 11.1 7.3 3.4 15.6 4.2 19.3 5.9 3.7 1.7 11.3 5.7 13.5 6.1 2.3 0.4 3.7-1.8 4.1-3.5 0.4-1.8 2.7-10.5 2.1-12.1-0.5-1.6-3.9-1-5.1-2.2-1.3-1.2-2-4.4-2-4.4z"/>
				<path id="&lt;Path&gt;" class="s5" d="m249.4-191.1c1.1 1 8.4-0.7 13.4-1.8 5-1 14.2-1.7 18.2-1 3.9 0.7 7.4 2.4 8.7 1.4 1.3-1 0.8-4.8 0-6.4-0.8-1.6-5-8.3-11.4-10.2-6.4-1.9-15.5-1.6-18.8-2.7-3.2-1-11.8-4.2-13.4-4.3-1.7-0.1-3.9 2.2-4.3 3.6-0.3 1.5-4.2 9-3.7 10 2.2 0.2 6.4 1.3 8.7 4.1 2.2 2.9 1.2 6.1 2.6 7.3z"/>
			</g>
		</g>
		<g id="&lt;Group&gt;">
			<g id="&lt;Group&gt;">
				<path id="&lt;Path&gt;" class="s1" d="m-749.1 264.5c0 15.1-12.2 27.3-27.3 27.3-15.1 0-27.4-12.2-27.4-27.3 0-15.1 12.3-27.4 27.4-27.4 15.1 0 27.3 12.3 27.3 27.4z"/>
				<g id="&lt;Group&gt;">
					<path id="&lt;Path&gt;" class="s2" d="m-757.7 248.4l-0.1 10 6 8 2.6-3.6c-0.2-4.6-1.7-9.1-4.2-13z"/>
					<path id="&lt;Path&gt;" class="s2" d="m-755.3 281.8l-0.1-4.5-9.5 3.1-5.8 8.1 4.3 1.4c4.3-1.7 8.1-4.5 11.1-8.1z"/>
					<path id="&lt;Path&gt;" class="s2" d="m-776.4 253.6l-10.4 7.5 4 12.1h12.7l4-12.1z"/>
					<path id="&lt;Path&gt;" class="s2" d="m-776.4 244.8l9.4-3.1-2.6-3.7q-3.4-0.9-6.8-0.9c-2.4 0-4.7 0.3-6.9 0.9l-2.6 3.7z"/>
					<path id="&lt;Path&gt;" class="s2" d="m-782.2 288.5l-5.8-8.1-9.5-3.1v4.6c2.9 3.5 6.7 6.3 11 8z"/>
					<path id="&lt;Path&gt;" class="s2" d="m-801 266.4l5.9-8-0.1-10-4.3 1.4c-2.5 3.9-4 8.4-4.2 13z"/>
				</g>
				<g id="&lt;Group&gt;">
					<path id="&lt;Path&gt;" class="s3" d="m-757.8 247.9l4 1.2c-3.6-5.3-8.9-9.1-15.1-10.9l2.5 3.4c4.5 1.8 8.1 5.8 8.6 6.3z"/>
					<path id="&lt;Path&gt;" class="s3" d="m-795.1 247.9c3.1-3.8 8-6 8.6-6.3l2.5-3.4c-6.2 1.8-11.5 5.6-15.1 10.9z"/>
					<path id="&lt;Path&gt;" class="s3" d="m-758.1 258.8l-7.5 2.4-4 12.2 4.6 6.5 9.7-3.1c0.4-0.7 2.9-5.2 3.2-9.9z"/>
					<path id="&lt;Path&gt;" class="s3" d="m-758.2 258.3v-10.1c-0.5-0.6-4-4.4-8.4-6.1l-9.6 3.1v8l10.4 7.5z"/>
					<path id="&lt;Path&gt;" class="s3" d="m-776.1 289.4c-2.9 0-5.2-0.5-5.7-0.6l-3.9 1.4c2.9 1.1 6 1.6 9.3 1.6 3.2 0 6.3-0.5 9.3-1.6l-4-1.4c-1.7 0.5-3.4 0.6-5 0.6z"/>
					<path id="&lt;Path&gt;" class="s3" d="m-749.1 264.5q0-0.5 0-0.9l-2.5 3.3c-0.3 4.9-3 9.6-3.3 10.2v4.1c3.7-4.7 5.8-10.7 5.8-16.7z"/>
					<path id="&lt;Path&gt;" class="s3" d="m-787.9 279.9l4.6-6.4-3.9-12.3-7.6-2.4-6 8.1c0.1 0.8 0.7 5.9 3.2 9.9z"/>
					<path id="&lt;Path&gt;" class="s3" d="m-781.6 288.4c0.7 0.1 5.8 1.1 10.3 0l6-8.2-4.7-6.5h-12.9l-4.6 6.5z"/>
					<path id="&lt;Path&gt;" class="s3" d="m-803.8 263.6q0 0.4 0 0.9c0 6 2.1 12 5.8 16.7v-4.1c-2.6-4.1-3.2-9.5-3.3-10.2z"/>
					<path id="&lt;Path&gt;" class="s3" d="m-794.7 248.2l0.1 10.1 7.5 2.5 10.4-7.6v-8l-9.6-3.1c-0.7 0.3-5.4 2.5-8.4 6.1z"/>
				</g>
			</g>
			<g id="&lt;Group&gt;">
				<path id="&lt;Path&gt;" class="s4" d="m-959.3 75.2c3.9 19.5 4 19.9 7.2 27.3 3.1 7.4 4.7 13.6 4.7 13.6l9.5-3.3 4 23.8c0 0-13.6 3.8-18.5 4.6-4.9 0.9-8.3 0.3-9-1.6-0.7-1.9-6.1-11.3-7-20.7-1-9.4-0.6-39.6-2.2-42.9-1.7-3.4-5.8-8.3-6.2-10.8-0.3-2.6-0.8-5.4 0.7-7.6 1.5-2.2 8.1-5.4 9.8-6.3 1.6-0.9 1.9-2.5 3.8-2 1.9 0.4 5 5.6 5.4 6.7 0.3 1 1.2 4.6 1.6 5 0.7 0.9 2.4 2.5 2.7 4 0.2 1.5-1.9 3.7-2.7 5-0.8 1.4-4.1 3.7-3.8 5.2z"/>
				<path id="&lt;Path&gt;" class="s4" d="m-797.5 115.5c0 0 5.6 4.8 7.2 5.9 1.5 1.2 8.6 7 13.9 13.5 5.3 6.5 23.7 30.9 24.9 33.1 1.2 2.2 5 10.2 5.5 12 0.4 1.8 0.5 4.8 0.3 5.6-0.2 0.7-3.6 3.4-4.7 4.9-0.3 0.6-1 2.9-2.3 2.9-1.3-0.1-3-0.4-3.2-0.7-0.2-0.3-1.5-3.5-1.5-3.5 0 0-2-0.9-2.7-1.5-0.6-0.6-1.3-1.7-1.2-2.9 0.1-1.2 1.3-7 1.3-8.6 0-1.5-3.3-6.1-11-13.8-7.7-7.7-15.9-12-23.3-19.5-5.7-5.9-8.7-8.4-8.7-8.4-5-1.9-13.8-6.5-13.8-6.5l6.2-19.5c0 0 7.3 3.5 13.1 7z"/>
				<path id="&lt;Path&gt;" class="s4" d="m-880.4 284.8c1.6 15.4 7.1 34.2 9.2 39 2.2 4.9 6.5 7.5 11 8 4.5 0.4 15.3 1.5 15.3 1.5 4.1-5 6.1-23.1 4.5-29.9l-2.5-0.6c0 0 2.1-14.2 2.6-20.1 0 0-8.9-3.4-19.9-4.1-10.9-0.8-18.5 2.7-18.5 2.7z"/>
				<path id="&lt;Path&gt;" class="s4" d="m-906.8 213c-8.2 5.4-23.9 22.7-24.4 25.1-0.5 2.5 2.7 12.5 4 15.3 1.2 2.8 30.3-1.5 34.6-2.3 4.3-0.9 12.2-3.1 12.2-3.1 0 0 6.8-2.5 8.2-3.2 1.4-0.7-0.1-12.6-7.7-21.8-7.6-9.2-20.3-11.3-20.3-11.3z"/>
				<path id="&lt;Path&gt;" class="s10" d="m-900.2 211.7l-6.6 1.3c0 0 16.5 14.9 24.2 35.6 1.3-0.3 2.2-0.6 2.2-0.6 0 0 6.8-2.5 8.2-3.2 1.4-0.7-0.1-12.6-7.7-21.8-7.6-9.2-20.3-11.3-20.3-11.3z"/>
				<path id="&lt;Path&gt;" class="s12" d="m-880.4 248c0 0-1.2 33.7-1.1 34.9 0.1 1.3 1.1 1.9 1.1 1.9 0 0 14.5-2.8 29 0 14.6 2.8 19.1 4.2 19.1 4.2l-0.7-10.4c1.4-9.6 5.1-24.3 5.1-24.3 0 0 13.5-20.1 16.5-34.1z"/>
				<path id="&lt;Path&gt;" class="s13" d="m-841.6 259.5c9.8-7.7 22.1-23 26.8-29 1.5-3.6 2.7-7.1 3.4-10.3l-69 27.8c0 0-1.2 33.7-1.1 34.9 0.1 1.3 1.1 1.9 1.1 1.9 0 0 14.4-2.8 29 0z"/>
				<path id="&lt;Path&gt;" class="s12" d="m-893.3 203.4c-3.1 2.4-12.8 7.5-12.9 8.2-0.1 0.7-0.6 1.4-0.6 1.4 0 0 16 5.7 23.4 16.1 7.5 10.3 7.5 16.5 7.5 16.5l-4.5 2.4c0 0 5.9 8.8 11.7 12.1 3.9-2.9 8-9.3 8-9.3 0 0 28.5-10.9 35.4-14.4 6.8-3.5 16.3-13.6 15.1-25.8-1.2-12.2-3.3-20.3-3.3-20.3l-4.3-8h-65.7c0 0-6.7 11.9-9.8 21.1z"/>
				<g id="&lt;Group&gt;">
					<path id="&lt;Path&gt;" class="s5" d="m-883.1 83.2c0 0-28.8 13-29.5 13.2-2.8 1.3-28.6 14.5-28.6 14.5 0 0-0.2 17.1 6.7 29.8 10.5-1.8 23.7-5.7 23.7-5.7 0 0 8.1 31 14.7 47.3 0.5 9.5 2.8 21.1 2.8 21.1 0 0 9.1-7.6 19.6-9.8 32.2-6.8 52.8-8 56.3-7.9 1.5 1.1 3.9 4.6 3.9 4.6 0 0 6-5.1 5.6-6.1-0.3-1.1-13.1-19.1-20.7-27 1.4-18.1 2.3-24.1 2.3-24.1l17.7 7.7c0 0 12.1-6.5 12.5-25.6-13.1-9.9-33-21.3-35-22.5-2.1-1.1-22-7.5-26.2-8.6-4.2-1-18.2-4.4-25.8-0.9z"/>
					<path id="&lt;Path&gt;" class="s6" d="m-939.9 124.2c0.9 5.2 2.6 11.2 5.4 16.5 10.5-1.8 23.7-5.7 23.7-5.7-1.9-10.9-3.5-23.8-3.5-23.8 0 0-18.4 8.6-25.6 13z"/>
					<path id="&lt;Path&gt;" class="s6" d="m-826.3 133.1l-6.7-3.3c0 0-5.7-5-10.5-11.4 0 0 4.2 25 4.6 26.1 1.6 5.1 10.3 12.7 10.3 12.7z"/>
					<path id="&lt;Path&gt;" class="s6" d="m-880.4 195.7c-9.2-5.2-15.7-13.4-15.7-13.4 0.5 9.5 2.8 21.1 2.8 21.1 0 0 5.5-4.6 12.9-7.7q0 0 0 0z"/>
				</g>
				<path id="&lt;Path&gt;" class="s10" d="m-885.5 73.5c0 0-2.1 15.6-2 16.5 0.4 2.7 6 13.2 17.3 13.2 9 0 11.3-11.1 11.3-11.1v-18.6z"/>
				<g id="&lt;Group&gt;">
					<path id="&lt;Path&gt;" class="s4" d="m-849.3 81.1c-2.7 4.1-1.3 6-5.5 9.5-4.1 3.5-9.5 5.8-11.1 6.6-1.6 0.7-5 0.2-8.3-1.8-3.3-2.1-12.4-11.7-12.6-22.1-3.6-3.5-6.9-8.6-2.9-15.8 0.4-3.6 6.7-30.4 24.7-26.8 18 3.7 23.1 12.3 23.7 20.2 0.7 7.9-1.9 17.2-2.9 19.7-1 2.5-2.8 6.9-5.1 10.5z"/>
					<path id="&lt;Path&gt;" class="s5" d="m-843.9 69.7c0 0-6.8 0.5-8.3 0.3-1.6-0.2-18.2-9.5-19.4-10.2-1.2-0.7-3.3-0.5-4.4 1.4-1 1.8-3.6 0.7-4.3 1.8-0.6 1.2-1.5 4.8-1.5 4.8 0 0-2.1-1.3-2.3-1.8-0.1-0.5 1.1-3 0-6.8-1.1-3.7-5-3.3-6.1-0.7 0-3.3-0.4-11.3 4-19.7 3.7-7 14.9-13.2 28.1-8.9 13.2 4.2 18.1 12.3 18.7 21.7 0.5 9.5-2.7 15.6-4.5 18.1z"/>
				</g>
				<path id="&lt;Path&gt;" class="s5" d="m-927.6 252.5c4.6-6.1 16.6-12.1 30.6-8 5.7 10.9 8.2 18.2 10 31.1 1.9 12.9 8.6 44.6 10.4 49.3 1.7 4.8 7.4 13.6 7.4 16.1 0 2.4-12.4 4.3-17.2 3.1-4.8-1.1-7.4-6.3-7.8-8-0.3-1.7-16.4-37.9-20.5-48.5-4-10.6-13.2-32.3-13.2-33-0.1-0.7-0.3-1.3 0.3-2.1z"/>
				<path id="&lt;Path&gt;" class="s5" d="m-844.9 333.3c0 0 0.6 1.1 2.2 1.1 1.6 0 38.5-0.6 55-0.5 16.4 0 27.3 1.6 31.9 2.7 4.7 1.2 10.2-0.7 9.7-7.3-0.4-6.7-3.4-12-10-12-6.7 0.1-20.5-0.8-34.7-5.3-14.2-4.5-24.2-9.1-32.6-10-8.4-1-17.3 1.3-17.3 1.3 0 0 0.8 16.1-4.2 30z"/>
				<path id="&lt;Path&gt;" class="s12" d="m-881.1 339.1c-4.9 0.7-11.6-3.4-13-2.5-1.3 0.8-2.7 2-3 7.4-0.4 5.4-3.9 13-5.6 18-1.6 5.1-8.6 13.7-11.3 17.9-2.7 4.2-4.1 4.2-2.7 5.8 1.4 1.7 9.3 3.4 17.5 0.8 8.3-2.5 11.9-8.5 15.2-12.1 3.4-3.5 4.8-6.4 8.8-8.6 4-2.2 12.9-7.7 15-10.7 2.1-2.9 2.3-4.7 0.6-7-1.7-2.2-8.1-9.1-9-10.1-0.9-0.9-2-1.7-3.9-1-1.8 0.7-6.2 1.8-8.6 2.1z"/>
				<path id="&lt;Path&gt;" class="s12" d="m-755.8 336.6c-0.4 2.7 4.1 5.7 10.5 11.5 6.4 5.8 8 7 9.9 10.5 1.9 3.4 5.4 11.2 7.7 10.7 2.3-0.6 7.8-6.6 7.3-14.7-0.5-8.1-1.3-11.1-4.8-15.5-3.5-4.4-7.3-11.8-8.2-18-1-6.2-3.5-12-5.3-13-1.7-1.1-5.3 1-9.3 2.3-3.9 1.3-10.2 4.4-10.3 5-0.1 0.6 0.3 1.9 0.9 2.2 0.6 0.4 4.7 4 4.6 8.1-0.2 4.2-2.5 8-3 10.9z"/>
			</g>
		</g>
		<g id="&lt;Group&gt;">
			<g id="&lt;Group&gt;">
				<path id="&lt;Path&gt;" class="s1" d="m-603.4 390.2c0 15.1-12.3 27.3-27.4 27.3-15.1 0-27.3-12.2-27.3-27.3 0-15.1 12.2-27.3 27.3-27.3 15.1 0 27.4 12.2 27.4 27.3z"/>
				<g id="&lt;Group&gt;">
					<path id="&lt;Path&gt;" class="s2" d="m-612 374.1l-0.1 10 5.9 8.1 2.7-3.7c-0.3-4.6-1.7-9.1-4.2-13z"/>
					<path id="&lt;Path&gt;" class="s2" d="m-609.7 407.6v-4.6l-9.5 3.1-5.8 8.1 4.3 1.4c4.3-1.7 8.1-4.4 11-8z"/>
					<path id="&lt;Path&gt;" class="s2" d="m-630.8 379.3l-10.3 7.5 4 12.2h12.7l4-12.2z"/>
					<path id="&lt;Path&gt;" class="s2" d="m-630.8 370.5l9.5-3.1-2.6-3.7q-3.4-0.8-6.9-0.8c-2.3 0-4.6 0.2-6.8 0.8l-2.6 3.7z"/>
					<path id="&lt;Path&gt;" class="s2" d="m-636.5 414.2l-5.8-8.1-9.5-3.1-0.1 4.6c3 3.6 6.8 6.3 11.1 8z"/>
					<path id="&lt;Path&gt;" class="s2" d="m-655.4 392.2l6-8.1-0.1-10-4.3 1.4c-2.5 3.9-4 8.4-4.3 13z"/>
				</g>
				<g id="&lt;Group&gt;">
					<path id="&lt;Path&gt;" class="s3" d="m-612.1 373.6l4 1.3c-3.6-5.4-8.9-9.2-15.1-11l2.5 3.4c4.5 1.8 8.1 5.8 8.6 6.3z"/>
					<path id="&lt;Path&gt;" class="s3" d="m-649.4 373.6c3.1-3.7 8-6 8.6-6.3l2.5-3.4c-6.2 1.8-11.5 5.6-15.1 11z"/>
					<path id="&lt;Path&gt;" class="s3" d="m-612.4 384.5l-7.6 2.4-3.9 12.3 4.6 6.4 9.7-3.1c0.3-0.6 2.9-5.2 3.2-9.9z"/>
					<path id="&lt;Path&gt;" class="s3" d="m-612.6 384l0.1-10.1c-0.5-0.6-4.1-4.4-8.4-6.1l-9.6 3.2v7.9l10.4 7.6z"/>
					<path id="&lt;Path&gt;" class="s3" d="m-630.4 415.1c-2.9 0-5.3-0.4-5.7-0.5l-4 1.3c3 1.1 6.1 1.6 9.3 1.6 3.2 0 6.4-0.5 9.3-1.6l-3.9-1.3c-1.7 0.4-3.4 0.5-5 0.5z"/>
					<path id="&lt;Path&gt;" class="s3" d="m-603.4 390.2q0-0.5 0-0.9l-2.5 3.4c-0.3 4.8-3 9.5-3.3 10.1v4.2c3.7-4.8 5.8-10.7 5.8-16.8z"/>
					<path id="&lt;Path&gt;" class="s3" d="m-642.3 405.6l4.7-6.4-4-12.3-7.5-2.4-6 8.1c0.1 0.8 0.7 6 3.2 9.9z"/>
					<path id="&lt;Path&gt;" class="s3" d="m-635.9 414.1c0.7 0.2 5.8 1.2 10.3 0l5.9-8.2-4.6-6.5h-12.9l-4.7 6.5z"/>
					<path id="&lt;Path&gt;" class="s3" d="m-658.1 389.3q0 0.4 0 0.9c0 6.1 2 12 5.8 16.8v-4.2c-2.6-4.1-3.2-9.5-3.3-10.1z"/>
					<path id="&lt;Path&gt;" class="s3" d="m-649 373.9v10.1l7.6 2.5 10.4-7.6v-7.9l-9.6-3.2c-0.7 0.3-5.4 2.5-8.4 6.1z"/>
				</g>
			</g>
			<g id="&lt;Group&gt;">
				<path id="&lt;Path&gt;" class="s4" d="m-507.9 331.9c0 0 14.2 11.4 19.1 14.4 4.9 3 14.5 4.6 14.5 4.6 0 0 12-9.1 10.5-26.2l-4.8-1.9c-1-1.2-11.2-15.9-11.2-15.9l-7-7.8c0 0-14.1 13.1-21.1 32.8z"/>
				<path id="&lt;Path&gt;" class="s4" d="m-601.4 268.6c-2.9 5-10 17.8-10.2 19.3-0.2 1.5 0 7.1 2.6 12.1 2.6 4.9 5.9 12.8 5.9 12.8 0 0 17.5-10.4 32.2-11.1l-2-4.3 6.8-4c2.5-2 4.5-8.8 4.5-8.8 0 0-10.4-17-32-23 0 0-5.5 2.9-7.8 7z"/>
				<path id="&lt;Path&gt;" class="s10" d="m-629.7 183.2l-0.7 10.2c0 0-2.3 1.8-3.8 3.8-1.5 2-13.8 16.6-13.8 16.6 0 0-0.3 6.2 4.1 12.4 0 0 29.8-17.4 33.7-19.7 4-2.3 4.4-3.3 4.6-4.1 0.2-0.8 2-19.2 2-19.2z"/>
				<path id="&lt;Path&gt;" class="s6" d="m-557 288.7c22.5 28.5 48.3 46.5 48.3 46.5 1.2 0 2.7 0 2.7 0 0 0 10.4-16.4 23.5-30.9l2.8 2.6c0 0 3.5-6.6 3.8-13.1-5.6-4.4-13.8-9.1-13.8-9.1l-15.5-26.1c-1.7-6.2-3.3-17.5-4.6-22.4-1.4-4.9-14.6-10.3-28.4-4.5-13.9 5.7-28.2 27.2-30.8 30.5-2.6 3.2-2.4 9.5 0 13 2.4 3.5 12 13.5 12 13.5z"/>
				<path id="&lt;Path&gt;" class="s5" d="m-587.3 248.8c-5.3 6.4-14.1 17.3-14.1 17.3v2.5c0 0 10.1-0.3 20.6 8.7 10.5 9 14.7 16.1 14.7 16.1 0 0 9.5 6.9 10.3 6.5 0.9-0.3 6.9-15.5 6.9-15.5 0 0 24.5-17.7 30.4-23.8 5.9-6.2 11-16.2 8.2-26.3-2.7-10.1-11.2-25.9-11.2-25.9l-3.3-3.2c0 0-30.1 0-36.6 0-6.5 0-21.9 19-25.9 43.6z"/>
				<path id="&lt;Path&gt;" class="s4" d="m-503.1 131.1c0 0 4.1 4.3 7 8.6 1.1 1.6 6.5 9.4 10.3 16.8 3.8 7.5 16.6 35.3 17.3 37.7 0.6 2.4 2.8 11 2.8 12.8 0 1.9-0.5 4.8-0.9 5.6-0.3 0.7-4.2 2.6-5.6 3.8-0.4 0.5-1.6 2.6-2.9 2.3-1.2-0.4-2.8-1-2.9-1.3-0.2-0.4-0.8-3.8-0.8-3.8 0 0-1.8-1.3-2.3-2-0.5-0.7-0.9-2-0.5-3.1 0.3-1.2 2.7-6.6 3-8.1 0.4-1.5-1.9-6.7-7.8-15.8-5.9-9.2-13-15.2-18.6-24-4.4-7-6.7-10.1-6.7-10.1-7.9-0.4-17.6-2.4-17.6-2.4l5.5-24.4c0 0 10.2 2.5 20.7 7.4z"/>
				<path id="&lt;Path&gt;" class="s8" d="m-633 139.2c-0.9 20.5-2.3 47.4-2.3 47.4 8.4 4.7 22.1 6.7 34.1 4 0 0 1.7-30.7 1.9-40.8 0.1-10.1-29.5-18.2-33.7-10.6z"/>
				<path id="&lt;Path&gt;" class="s17" d="m-619.8 123.9c0 0-13 14.2-13.2 15.3-0.3 1.1 0.9 18.1 13.2 42.2 12.3 24.2 19.4 35.7 19.4 35.7 0 0 4.9 17.7 13.1 31.7 0 0 26.5-27.5 32.5-31.2 21.8-6.3 33.3-9.2 33.3-9.2 0 0 1.7-3.8 1.4-5.1-0.4-1.2-7-8.4-7-8.4l-19-46.6c-5.4-10.9-14.9-37.6-16.5-38.4-1.7-0.8-30.2 2.3-38.7 4.9-8.5 2.6-18.5 9.1-18.5 9.1z"/>
				<path id="&lt;Path&gt;" class="s10" d="m-629.1 125.9c0 0 5 1.1 7.5 4.4 2.4 3.3 2.2 6.5 4.1 7 1.9 0.5 12.5-0.1 17.7-7.7 5.2-7.6 4.6-12.7 4.6-12.7l-5-3.3-8.3-3.7h-20.6z"/>
				<g id="&lt;Group&gt;">
					<path id="&lt;Path&gt;" class="s4" d="m-643.6 84.6c-1.3 4.6-1.8 10.7-1.6 14.2 0.1 3.5 0.3 4-0.1 6-0.4 1.9-2.5 7.1-2.2 7.8 0.4 0.7 5 2.2 5 2.2 0 0 2.3 9.9 2.6 11.8 0.3 1.8 1.8 2.6 3.8 2.4 2.1-0.2 17.4-4.5 21.9-8 4.4-3.4 7.2-9.6 7.2-9.6 0 0 4.6 1.3 9.1-5.4 4.6-6.6 8.4-26 1-35.6-7.3-9.6-24.7-11.3-33.4-6-8.6 5.3-11.4 13.2-13.3 20.2z"/>
					<path id="&lt;Path&gt;" class="s5" d="m-644.1 86.7c0 0 11.6-4.3 14.2-4.8 2.7-0.5 3.7 0.1 4.2 1.2 0.4 1 0.8 6.3 1.6 6.8 0.8 0.5 7.7 0.7 8 1.3 0.3 0.6 2.3 12.2 2.3 12.2 0 0 3.2-0.6 3.5-0.9 0.2-0.2 1-4.2 2.1-5.5 1-1.3 4.3-2.4 4.9-1.8 0.7 0.6 3.9 3.5 3.8 6.4-0.1 2.9-4.6 9-7.3 9.9 1.7 1.3 6.9 2.3 6.9 2.3 0 0 4.9-4.3 8.6-14.5 3.7-10.3 2.4-21.1 1-24.6-1.4-3.4-4.6-6-4.6-6 0 0-7.5-7.8-14.4-8.9-6.8-1.2-16.1-1.3-24.4 3.8-8.3 5.1-10.5 12.4-10.8 15-0.2 2.5 0.4 8.1 0.4 8.1z"/>
				</g>
				<path id="&lt;Path&gt;" class="s8" d="m-562.6 109.9c-2.7 5.3-2.7 29.2 17.4 40.8 14.4 2.8 24.6 4 24.6 4 0 0 8.4-14.3 6.4-31.4 0 0-44.5-13.2-45.4-13.5-0.9-0.3-2.4-0.1-3 0.1z"/>
				<path id="&lt;Path&gt;" class="s18" d="m-587.3 248.8c0 0 26.5-27.5 32.5-31.2 0 0-26 11.4-39 17.9 1.8 4.4 4 9 6.5 13.3z"/>
				<path id="&lt;Path&gt;" class="s4" d="m-644.4 210.9c-1.7-1.1-8.1-4.6-9-4.9-0.9-0.3-3.1-0.2-3.6 0.3-0.5 0.5-1.4 4.2-1.5 4.3-0.8 1.2-4.2 5.1-4.1 5.8 0.1 0.7 3.1 8.5 4.1 10.3 1 1.7 3.3 3.5 3.9 4 0.5 0.4 2.6 0.4 3.6 0 1-0.5 13.9-8.1 15-9.1-3.2-4.8-8.4-10.7-8.4-10.7z"/>
				<path id="&lt;Path&gt;" class="s17" d="m-571.3 300.7c-7.9-0.7-22.6 3.3-32.1 11.3 0 0-0.6 1.1 0.3 2.8 0.8 1.6 34.7 74.8 37.8 81.5 3.2 6.8 5.2 13.6 12 13 6.9-0.5 12.5-7.9 10.7-13-1.9-5.1-6-12.2-7.5-16.2-1.5-4-9.2-39.5-11-51.4-1.7-11.8-5.1-22.1-10.2-28z"/>
				<g id="&lt;Group&gt;">
					<path id="&lt;Path&gt;" class="s8" d="m-565.2 311.9q-0.8-2.2-1.7-4c-17.2 0.5-28.8 7.6-34 11.6q0.8 1.7 1.8 3.8c4.4-3.6 16.2-11.3 33.9-11.4z"/>
					<path id="&lt;Path&gt;" class="s8" d="m-601.6 317.9c4.5-3.6 16.2-11.4 34-11.6q-0.6-1.1-1.2-2c-17.4 0.6-28.9 7.9-33.7 11.7q0.3 0.8 0.9 1.9z"/>
					<path id="&lt;Path&gt;" class="s8" d="m-564 315.3q-0.3-1.1-0.7-2c-17.1 0.3-28.6 7-33.9 11.1q0.4 0.9 0.9 1.9c5-3.9 16.6-10.9 33.7-11z"/>
				</g>
				<path id="&lt;Path&gt;" class="s17" d="m-474.3 350.9c0.1 0 0.5 0.8 1.7 1.2 1.2 0.3 43.1 13.1 62.4 21.5 19.2 8.3 23.5 11 26.1 12.5 2.6 1.5 8-5.2 6.2-12.4-1.7-7.3-4.6-10.3-4.6-10.3 0 0-9.2-0.8-15.7-3.8-6.5-3-25.3-15.4-34.2-22.7-8.8-7.2-10-9-15.3-10.3-5.4-1.4-16.4-2.7-16.4-2.7l-0.7 0.4c0 0 0.4 14-9.4 26.6z"/>
				<g id="&lt;Group&gt;">
					<path id="&lt;Path&gt;" class="s8" d="m-461.5 354c4.6-6.1 8.2-17.6 7.3-28.7-1.4-0.2-2.8-0.5-4.1-0.6 1.4 11.5-3 22.3-6.4 26.9-0.9 1.2-1.6 1.9-2.2 2.3q2 0.6 4.4 1.3c0.3-0.4 0.7-0.8 1-1.2z"/>
					<path id="&lt;Path&gt;" class="s8" d="m-468.7 353.3c0.7-0.6 1.3-1.4 1.8-2 4.3-5.8 7.8-16.4 7.1-26.9q-1.1-0.1-2-0.2c0.7 10.1-2.6 20.4-6.7 25.9-0.8 1.1-1.7 2-2.5 2.5q1 0.3 2.3 0.7z"/>
					<path id="&lt;Path&gt;" class="s8" d="m-457.9 354.7c4.5-6.2 8.2-17.7 7-28.8q-1-0.2-2.1-0.4c1.4 10.7-2.2 22.1-6.5 28q-1 1.3-1.9 2.1 1 0.3 2.1 0.6c0.5-0.5 1-1 1.4-1.5z"/>
				</g>
				<path id="&lt;Path&gt;" class="s5" d="m-554 398.1c-3.7-1.3-11.4-5-12.5-4.6-1.2 0.5-3.1 3.7-6.4 7.9-3.3 4.2-5.8 6.7-9.5 9.2-3.7 2.5-12.3 7.6-13.3 8.5-1 0.9-1.5 5 4.5 6.6 6 1.6 16.7 2 22.5 0 5.7-2 16.8-5.9 19.1-6.2 2.3-0.3 13.7-2.4 14.9-3.5 1.3-1 1.6-3.3 0.8-5.1-0.9-1.7-6.3-13.3-7-14.2-0.8-1-2.1-1.3-2.1-1.3 0 0-3.4 3.6-11 2.7z"/>
				<path id="&lt;Path&gt;" class="s5" d="m-382.1 376.6c-1.1 2.9-5.2 6.2-5.1 7.7 0 1.6 2.8 4.3 7.3 9.8 4.5 5.5 10.7 13.7 13.4 18 2.8 4.4 3.3 6.3 4.9 5.9 1.6-0.4 7.3-6.2 5.9-16.5-1.5-10.4-3-12.1-5.4-15.2-2.4-3.2-5.2-10.2-5.7-12.8-0.5-2.7-2.8-12.8-4.6-13.9-1.8-1-6.1-0.3-8.3 0-2.1 0.4-6.5 2.4-6 3.4 0.5 1.1 3.6 3.7 4 8.2 0.5 4.5-0.4 5.4-0.4 5.4z"/>
			</g>
		</g>
		<g id="&lt;Group&gt;">
			<g id="&lt;Group&gt;">
				<path id="&lt;Path&gt;" class="s1" d="m-249.2 391.3c0 15.1-12.2 27.3-27.3 27.3-15.1 0-27.4-12.2-27.4-27.3 0-15.1 12.3-27.3 27.4-27.3 15.1 0 27.3 12.2 27.3 27.3z"/>
				<g id="&lt;Group&gt;">
					<path id="&lt;Path&gt;" class="s2" d="m-257.8 375.2l-0.1 10 6 8.1 2.6-3.7c-0.2-4.6-1.7-9.1-4.2-13z"/>
					<path id="&lt;Path&gt;" class="s2" d="m-255.4 408.7l-0.1-4.6-9.5 3.1-5.8 8.1 4.3 1.4c4.3-1.7 8.1-4.4 11.1-8z"/>
					<path id="&lt;Path&gt;" class="s2" d="m-276.5 380.4l-10.4 7.5 4 12.2h12.7l4-12.2z"/>
					<path id="&lt;Path&gt;" class="s2" d="m-276.5 371.6l9.4-3.1-2.6-3.7q-3.4-0.8-6.8-0.8c-2.4 0-4.7 0.2-6.9 0.8l-2.6 3.7z"/>
					<path id="&lt;Path&gt;" class="s2" d="m-282.3 415.3l-5.8-8.1-9.5-3.1v4.6c2.9 3.6 6.7 6.3 11 8z"/>
					<path id="&lt;Path&gt;" class="s2" d="m-301.1 393.3l5.9-8.1-0.1-10-4.3 1.4c-2.5 3.9-4 8.4-4.2 13z"/>
				</g>
				<g id="&lt;Group&gt;">
					<path id="&lt;Path&gt;" class="s3" d="m-257.9 374.7l4 1.3c-3.6-5.4-8.9-9.2-15.1-11l2.5 3.4c4.5 1.8 8.1 5.8 8.6 6.3z"/>
					<path id="&lt;Path&gt;" class="s3" d="m-295.2 374.7c3.1-3.7 8-6 8.6-6.3l2.5-3.4c-6.2 1.8-11.5 5.6-15.1 11z"/>
					<path id="&lt;Path&gt;" class="s3" d="m-258.2 385.6l-7.5 2.4-4 12.3 4.6 6.4 9.7-3.1c0.4-0.6 2.9-5.2 3.2-9.9z"/>
					<path id="&lt;Path&gt;" class="s3" d="m-258.3 385.1v-10.1c-0.5-0.6-4-4.4-8.4-6.1l-9.6 3.2v7.9l10.4 7.6z"/>
					<path id="&lt;Path&gt;" class="s3" d="m-276.2 416.2c-2.9 0-5.2-0.4-5.7-0.5l-3.9 1.3c2.9 1.1 6 1.6 9.3 1.6 3.2 0 6.3-0.5 9.3-1.6l-4-1.3c-1.7 0.4-3.4 0.5-5 0.5z"/>
					<path id="&lt;Path&gt;" class="s3" d="m-249.2 391.3q0-0.5 0-0.9l-2.5 3.4c-0.3 4.8-3 9.5-3.3 10.1v4.2c3.7-4.8 5.8-10.7 5.8-16.8z"/>
					<path id="&lt;Path&gt;" class="s3" d="m-288 406.7l4.6-6.4-3.9-12.3-7.6-2.4-6 8.1c0.1 0.8 0.7 6 3.2 9.9z"/>
					<path id="&lt;Path&gt;" class="s3" d="m-281.7 415.2c0.7 0.2 5.8 1.2 10.3 0l6-8.2-4.7-6.5h-12.9l-4.6 6.5z"/>
					<path id="&lt;Path&gt;" class="s3" d="m-303.9 390.4q0 0.4 0 0.9c0 6.1 2.1 12 5.8 16.8v-4.2c-2.6-4.1-3.2-9.5-3.3-10.1z"/>
					<path id="&lt;Path&gt;" class="s3" d="m-294.8 375l0.1 10.1 7.5 2.5 10.4-7.6v-7.9l-9.6-3.2c-0.7 0.3-5.4 2.5-8.4 6.1z"/>
				</g>
			</g>
			<g id="&lt;Group&gt;">
				<path id="&lt;Path&gt;" class="s4" d="m-159 186.5c0 0-6.7 4.4-8.3 5.7-1.6 1.3-9.7 7-17.9 10.6-8.2 3.6-38.8 15.8-41.4 16.3-2.6 0.6-12 2.4-14 2.3-1.9-0.1-5.1-2.5-5.8-2.9-0.8-0.4-2.6-4.7-3.8-6.3-0.5-0.5-2.7-1.9-2.3-3.2 0.4-1.3 1.2-3 1.6-3.1 0.4-0.2 4.1-0.6 4.1-0.6 0 0 1.5-1.8 2.2-2.3 0.8-0.5 2.2-0.9 3.4-0.4 1.2 0.4 6.9 3.3 8.5 3.7 1.6 0.5 7.3-1.7 17.5-7.5 10.1-5.7 16.9-13 26.8-18.5 7.7-4.3 11.2-6.6 11.2-6.6 3.4-4.6 10.7-12.5 10.7-12.5l18.4 13.7c0 0-5.7 6.5-10.9 11.6z"/>
				<path id="&lt;Path&gt;" class="s4" d="m-101.8 157l8.5 9.5c8.4 8.9 19.1 5.7 25.2-3.6 0-1.1-15.7-22.8-15.7-22.8z"/>
				<path id="&lt;Path&gt;" class="s11" d="m-180.3 125.9c-1.1 17.3-2.6 36.1-2.6 36.1l-3.8 13.1c0 0 11.8 8.8 34.2 6.5v-55.7z"/>
				<path id="&lt;Path&gt;" class="s4" d="m-147.8 300.9c0 0 6.3 13.1 11.5 17.2 5.3 4 16.8 9.7 16.8 9.7 0 0 14.3-8 15-25.2l-6-5.8-4.6-19.3z"/>
				<path id="&lt;Path&gt;" class="s4" d="m-196.5 269.6c0 0-11.8 21.3-12.4 23.1-0.6 1.7-2.6 16.4-2.6 16.4 0 0 7.8 9.1 26.7 8.3l2.9-8.6c3.7-4.4 35.5-39.2 35.5-39.2z"/>
				<path id="&lt;Path&gt;" class="s12" d="m-160.1 280.1c0 0 8.8 18.8 12.9 25 18.1-3.6 37.4-15.8 44.6-25l-6.7-7.9-2.6-20c1.4-5.1 3.7-13.4 4.2-15.4h-52.4z"/>
				<path id="&lt;Path&gt;" class="s13" d="m-118.4 269.8c1.5-4.9 6.5-17.6 6.5-17.6 1.4-5.1 3.7-13.4 4.2-15.4h-52.4v43.3c0 0 8.8 18.8 12.9 25 8.8-1.7 17.9-5.5 25.7-10 1.1-8.7 3.1-25 3.1-25.3z"/>
				<path id="&lt;Path&gt;" class="s12" d="m-174.7 219.7l-4.2 16.5c-6.3 11.5-22.4 39.2-22.4 39.2 0 0 18 13.3 31.8 16.2 13.7 2.8 26.3 2.2 26.3 2.2l4.9-18.6c0 0 22.9-23.5 26.1-28.3 3.3-4.7 6.7-12.4 5.2-27.2z"/>
				<path id="&lt;Path&gt;" class="s8" d="m-139.2 93.4c0 0 13.4 5.3 18.9 8.1 5.5 2.7 10.9 5.7 15.1 10.6 4.3 4.8 26.8 31.5 26.8 31.5 0 0-6.8 12.6-20.4 21.2l-10.5-6.9-1.2 41.5c4.8 12.9 7 21.2 6.8 21.5-0.1 0.4-12.5 7.3-33.8 9-21.4 1.8-40.3-1-40.3-2 0-1 2.4-25.7 2.4-25.7 0 0-3.5-37.6-4.1-43.4-0.7-5.7-2-33.4 0-37.1 2-3.8 18.7-20.6 18.7-20.6 0 0 11.1-8.2 21.6-7.7z"/>
				<path id="&lt;Path&gt;" class="s5" d="m-132 96.3c-3.9-1.6-7.2-2.9-7.2-2.9-10.5-0.5-21.6 7.7-21.6 7.7 0 0-2.2 2.2-5.2 5.3 0.5 2 1.6 4.9 4.1 7.6 12.5-3.3 24.4-12.1 29.9-17.7z"/>
				<path id="&lt;Path&gt;" class="s10" d="m-166.4 96.1c0 0 2.9 3.4 3 5 0.2 1.5 0.6 11.5 1.8 11.5 1.2 0 11.4-5.6 16.7-10.5 5.2-4.8 6.3-7.4 6.3-7.4 0 0-2-4.5-2.2-5.7-0.2-1.2-1.2-6.3-1.2-6.3h-24.4z"/>
				<g id="&lt;Group&gt;">
					<path id="&lt;Path&gt;" class="s4" d="m-179.7 58.4c-1.4 4.4-2.1 10.2-2.1 13.5 0.1 3.4 0.2 3.9-0.2 5.7-0.5 1.8-2.7 6.7-2.4 7.4 0.3 0.7 4.6 2.3 4.6 2.3 0 0 1.9 9.5 2.1 11.3 0.3 1.8 1.7 2.6 3.6 2.4 1.9-0.1 16.8-3.7 21.1-6.8 4.4-3.1 7.3-8.9 7.3-8.9 0 0 4.3 1.4 8.9-4.8 4.5-6.2 8.8-24.5 2.2-33.9-6.7-9.4-23.2-11.7-31.7-7-8.4 4.8-11.3 12.2-13.4 18.8z"/>
					<path id="&lt;Path&gt;" class="s5" d="m-180.3 60.5c0 0 11.2-3.7 13.8-4.2 2.5-0.4 3.5 0.3 3.9 1.3 0.4 1 0.5 6.1 1.3 6.6 0.8 0.5 7.3 1 7.6 1.5 0.3 0.6 1.7 11.7 1.7 11.7 0 0 3.2-0.4 3.4-0.7 0.2-0.2 1.1-4 2.2-5.2 1-1.2 4.2-2.2 4.8-1.5 0.6 0.6 3.6 3.5 3.4 6.2-0.3 2.8-4.7 8.5-7.3 9.2 1.5 1.3 4.7 3.6 4.7 3.6 0 0 6.6-5 10.5-14.7 3.9-9.7 3-20 1.8-23.4-1.2-3.3-4.2-5.9-4.2-5.9 0 0-6.9-7.7-13.4-9-6.5-1.4-15.3-1.8-23.4 2.8-8.1 4.5-10.5 11.4-10.8 13.8-0.3 2.5 0 7.9 0 7.9z"/>
				</g>
				<path id="&lt;Path&gt;" class="s11" d="m-114.2 190.5l3.7 8.9 1.2-41.5-11.4-10.4z"/>
				<g id="&lt;Group&gt;">
					<path id="&lt;Path&gt;" class="s5" d="m-116.5 226.1c1.3-40-3.4-78.3-3.5-78.7v-0.2c-12.6-30.7-25.9-40.9-26.5-41.4l-0.9 1.2c0.2 0.1 13.5 10.4 26 40.7 0.2 2.2 4.7 39.8 3.4 78.9q0.7-0.2 1.5-0.5z"/>
					<path id="&lt;Path&gt;" class="s5" d="m-180.6 131.4c7.2-11.9 17.4-22 17.5-22.1l-1-1.1c-0.1 0.1-9.2 9.1-16.4 20.3q0 1.4-0.1 2.9z"/>
				</g>
				<path id="&lt;Path&gt;" class="s8" d="m-211.2 306.7c0 0 8.5 8.1 27.2 8.4 0 0 1.3 2.3 1.2 3.3-0.1 1-3.4 17.2-10.1 30.3-6.8 13.1-19 30.5-22.5 40.4-3.5 9.8-8.3 17.8-8.9 19-0.6 1.1-18-1.4-16.6-7.6 1.4-6.1 16.4-45.9 20.1-61.4 3.8-15.5 8.3-30.9 8.5-31.4 0.3-0.5 1.1-1 1.1-1z"/>
				<g id="&lt;Group&gt;">
					<path id="&lt;Path&gt;" class="s5" d="m-183.9 323.4c-18-0.9-26.6-6-30.3-9.2q-0.5 1.8-1.2 4.1c4.8 3.7 14 8.1 30.5 9.1q0.6-2.2 1-4z"/>
					<path id="&lt;Path&gt;" class="s5" d="m-213.2 310.7q-0.3 0.9-0.6 2c4.6 3.5 13.7 8.1 30.3 9.1q0.3-1.2 0.5-2c-17.3-0.9-26.1-5.8-30.2-9.1z"/>
				</g>
				<path id="&lt;Path&gt;" class="s8" d="m-120.4 327.4c0 0 0.3 1.2 1.5 2.1 1.3 0.9 36.7 22.9 51.3 33.6 14.6 10.6 22.9 18.9 25.5 21.7 2.6 2.8 10.7 1.3 12.7-4.7 2.1-6-0.5-12-1.1-12.6-0.7-0.7-10.9-7.3-16.9-12.8-5.9-5.5-29.2-35.1-36.3-41.6-7.1-6.5-21.6-11.3-21.6-11.3 0 0-1.3 13.1-15.1 25.6z"/>
				<g id="&lt;Group&gt;">
					<path id="&lt;Path&gt;" class="s5" d="m-94.7 306.2q-2-1-3.8-1.7c-0.9 5-4.3 18.6-15.9 27.8q1.6 1 3.6 2.3c11.2-9.6 14.9-22.4 16.1-28.4z"/>
					<path id="&lt;Path&gt;" class="s5" d="m-102.3 302.9c-1.8 14.3-12.1 24.3-15.5 27.3q0.7 0.4 1.7 1.1c4.1-3.5 13.8-13.3 15.7-27.7q-1.1-0.4-1.9-0.7z"/>
				</g>
				<path id="&lt;Path&gt;" class="s5" d="m-230.7 401.8c-2.3-0.9-6.8-8.6-7.9-8.5-1.2 0-6.3 3-10.7 5.4-4.3 2.4-17.7 8.4-23.5 10.2-5.7 1.9-10.4 2.9-9.5 5.4 1 2.5 6.3 9.6 19.2 10 12.8 0.4 18.4-1.6 22.9-1 4.5 0.6 14.3 2.9 16.9 2.8 2.6-0.2 3.5-2.3 3.5-4 0-1.8 0.2-15.6 0-16.6-0.2-1-1.1-2.1-1.9-2-0.9 0-4.8 0-9-1.7z"/>
				<path id="&lt;Path&gt;" class="s5" d="m-36.2 375.1c-0.6 2.4-7.6 7.9-7.4 9 0.2 1.2 3.9 5.9 6.8 9.8 2.9 4 10.7 16.6 13.3 22 2.6 5.5 4.2 10 6.6 8.7 2.3-1.3 8.7-7.5 7.3-20.3-1.3-12.8-4-18.1-4-22.6 0-4.6 1-14.5 0.5-17.1-0.5-2.6-2.7-3.2-4.4-3-1.7 0.3-15.5 1.9-16.4 2.2-1 0.3-2 1.4-1.8 2.2 0.2 0.9 0.7 4.8-0.5 9.1z"/>
				<path id="&lt;Path&gt;" class="s4" d="m-93.3 166.5c0 0-16.5 45.9-17.4 49.2-0.3 0.9-1.7 19.7-1.7 21 0 1.3 2.2 6.4 2.7 7.4 0.5 1 2.3 3 4.3 2.5 2-0.5 13.3-6.1 13.5-7 0.2-0.9-4.3-6.1-4.3-6.1 0 0-0.4-5.8-0.2-8.3 0.2-2.5-1.9-6.9-1.9-6.9 0 0 14.5-20.2 19.9-31.6 5.4-11.4 10.3-22.8 10.3-23.8-7-12-23.6-3.3-25.2 3.6z"/>
			</g>
		</g>
		<g id="&lt;Group&gt;">
			<g id="&lt;Group&gt;">
				<path id="&lt;Path&gt;" class="s1" d="m135.9 402.6c0 15.1-12.3 27.4-27.4 27.4-15 0-27.3-12.3-27.3-27.4 0-15.1 12.3-27.3 27.3-27.3 15.1 0 27.4 12.2 27.4 27.3z"/>
				<g id="&lt;Group&gt;">
					<path id="&lt;Path&gt;" class="s2" d="m127.3 386.6l-0.1 10 5.9 8 2.7-3.6c-0.2-4.7-1.7-9.2-4.2-13.1z"/>
					<path id="&lt;Path&gt;" class="s2" d="m129.6 420v-4.5l-9.5 3-5.8 8.1 4.3 1.5c4.3-1.7 8.1-4.5 11-8.1z"/>
					<path id="&lt;Path&gt;" class="s2" d="m108.5 391.8l-10.3 7.5 4 12.1h12.7l4-12.1z"/>
					<path id="&lt;Path&gt;" class="s2" d="m108.5 383l9.5-3.1-2.6-3.7q-3.4-0.9-6.9-0.9c-2.3 0-4.6 0.3-6.8 0.9l-2.6 3.7z"/>
					<path id="&lt;Path&gt;" class="s2" d="m102.8 426.6l-5.8-8.1-9.5-3v4.5c2.9 3.6 6.7 6.4 11 8.1z"/>
					<path id="&lt;Path&gt;" class="s2" d="m84 404.6l5.9-8-0.1-10-4.3 1.3c-2.5 3.9-4 8.4-4.2 13.1z"/>
				</g>
				<g id="&lt;Group&gt;">
					<path id="&lt;Path&gt;" class="s3" d="m127.2 386l4 1.3c-3.6-5.3-8.9-9.2-15.1-10.9l2.5 3.4c4.5 1.8 8.1 5.7 8.6 6.2z"/>
					<path id="&lt;Path&gt;" class="s3" d="m89.9 386c3.1-3.7 8-5.9 8.6-6.2l2.5-3.4c-6.2 1.7-11.5 5.6-15.1 10.9z"/>
					<path id="&lt;Path&gt;" class="s3" d="m126.9 396.9l-7.6 2.5-3.9 12.2 4.6 6.4 9.7-3c0.4-0.7 2.9-5.2 3.2-9.9z"/>
					<path id="&lt;Path&gt;" class="s3" d="m126.8 396.5v-10.2c-0.5-0.5-4-4.3-8.4-6.1l-9.6 3.2v7.9l10.4 7.6z"/>
					<path id="&lt;Path&gt;" class="s3" d="m108.9 427.6c-2.9 0-5.2-0.5-5.7-0.6l-4 1.3c3 1.1 6.1 1.7 9.3 1.7 3.3 0 6.4-0.6 9.4-1.7l-4-1.3c-1.7 0.4-3.4 0.6-5 0.6z"/>
					<path id="&lt;Path&gt;" class="s3" d="m135.9 402.6q0-0.4 0-0.9l-2.5 3.4c-0.3 4.8-3 9.5-3.3 10.1v4.2c3.7-4.8 5.8-10.7 5.8-16.8z"/>
					<path id="&lt;Path&gt;" class="s3" d="m97.1 418l4.6-6.4-3.9-12.2-7.6-2.5-6 8.2c0.1 0.7 0.7 5.9 3.2 9.9z"/>
					<path id="&lt;Path&gt;" class="s3" d="m103.4 426.5c0.7 0.2 5.8 1.2 10.3 0l5.9-8.2-4.6-6.4h-12.9l-4.6 6.4z"/>
					<path id="&lt;Path&gt;" class="s3" d="m81.2 401.7q0 0.5 0 0.9c0 6.1 2.1 12 5.8 16.8v-4.2c-2.6-4.1-3.2-9.4-3.3-10.1z"/>
					<path id="&lt;Path&gt;" class="s3" d="m90.3 386.3v10.2l7.6 2.4 10.4-7.5v-8l-9.6-3.2c-0.7 0.3-5.4 2.5-8.4 6.1z"/>
				</g>
			</g>
			<g id="&lt;Group&gt;">
				<path id="&lt;Path&gt;" class="s5" d="m139.6 378.8c3 10.2 7.1 18.8 12.5 26.6 5.3 7.7 8.1 11.3 10 13.1 1.9 1.7 6.2 2.7 8.3 0.9 2.1-1.8 7.6-10.6 5.3-17.2-2.4-6.6-7.2-12.4-8.3-15.6-1.1-3.2-2.7-11.1-3.2-12.9-0.4-1.7-1.5-3.4-2.9-4.2-1.3-0.7-5.7-2.8-8.6-3.8-3-1-16.1-0.7-13.1 13z"/>
				<path id="&lt;Path&gt;" class="s4" d="m225.2 295.7l10.7 8.3c0 1.9 1.1 9.3 1.1 9.3 0 0 7.2 3.8 18.7 0.8 11.5-3 12.5-6.1 12.5-6.1 0 0-0.6-12.2-1.6-14.7-1-2.5-2.5-6.4-4.7-9-2.3-2.5-14.3-18.7-14.3-18.7l-2.6-2.8c0 0-9 0.5-17.1 7.6-8 7.1-11.5 23.1-11.5 23.1z"/>
				<path id="&lt;Path&gt;" class="s4" d="m107.7 260.3c-1.1 6.8-1.7 21.5-1.4 25.5 0.3 4 5.4 20.1 5.4 20.1 0 0 19 6.3 32.4-10.6l-4.9-8.9 4.9-7.5c0 0 4.5-6.4 5.8-11.2 1.4-4.8-9.2-15.3-21.8-17.7-12.6-2.5-18.2 1-18.8 2-0.6 1.1-1.6 8.3-1.6 8.3z"/>
				<g id="&lt;Group&gt;">
					<path id="&lt;Path&gt;" class="s5" d="m128.1 199c-5 9.3-21.5 52.6-21.7 54.1-0.2 1.5-0.2 4.1 1.3 7.2 1.2-2.8 2-4.6 2.5-4.7 0.4-0.1 13.3-1.1 24.1 5.3 10.9 6.4 12.2 13.4 12.2 13.4l-2.4 4.6c0 0 6.5 3.5 11.7 4.6 2-4.7 15.8-24.1 15.8-24.1l32 35c3.3 3.6 4.1 6.5 4.1 6.5 0 0 9.3-1.3 17.5-5.2l-5.8-4.4c0 0 10.2-17.5 26.5-26.9l1.7 1.2c0 0 0.1-3.4-0.9-5.1-1-1.6-25-32.9-35.1-45.6-21.6-27.1-65.1-40-83.5-15.9z"/>
					<g id="&lt;Group&gt;">
						<path id="&lt;Path&gt;" class="s6" d="m196.7 234.4l-21.3 18.2-3.8 6.8 10 11c7-17.1 15.1-36 15.1-36z"/>
						<path id="&lt;Path&gt;" class="s6" d="m155.8 283.5l-0.7-0.1-8.6-9.1-2.4 4.6c0 0 6.5 3.5 11.7 4.6q0 0 0 0z"/>
						<path id="&lt;Path&gt;" class="s6" d="m207.7 300.9c0 0 9.3-1.3 17.5-5.2l-5.8-4.4c-5.2 4.8-11.7 9.6-11.7 9.6z"/>
					</g>
					<path id="&lt;Path&gt;" class="s6" d="m211.6 214.9c-21.6-27.1-65.1-40-83.5-15.9-1.2 2.2-3 6.2-5.1 11.2 8.5 1.3 26.3 4.6 41.5 11.6l19.2 7.2c0 0 22.4 0.6 37.2-2.2-3.6-4.6-6.9-8.8-9.3-11.9z"/>
				</g>
				<g id="&lt;Group&gt;">
					<path id="&lt;Path&gt;" class="s4" d="m128.6 116.8l-11.4 5.5c0 0-10.6 0-15.6 1.6-5 1.6-43.5 14-45.5 14-2 0-6.5-4-9-4.3-2.5-0.2-6.4 0-7 0.8-0.6 0.7-1.2 4.5-1.2 4.5 0 0-4.9 6.4-5.2 7.7-0.2 1.4 7.7 10.2 10.5 11.9 2.9 1.8 4.5 1.4 7 0 2.5-1.4 10.4-5.2 10.4-5.2 0 0 41.6-3.2 50.3-4.7 8.6-1.5 24.7-8.3 24.7-8.3z"/>
					<path id="&lt;Path&gt;" class="s4" d="m255.5 169.3c0 0-0.9 7.3 2.1 17.1 3 9.7 8.4 34.7 7.9 38-0.5 3.2-5.6 9.2-6 11-0.4 1.7 2.6 5 2.9 5.9 0.2 0.8 1 7 1.6 7.8 0.6 0.9 4.1 1.3 5.5 0.8 1.4-0.5 4.4-2 7.6-3.5 3.3-1.5 6-3.6 6.1-5.3 0.2-1.6-2.8-16-2.8-17.3 0.1-11.2-1.3-50.8-2.9-54.5-1.6-3.8-6.6-11.7-6.6-11.7 0 0-10.1 4.9-15.4 11.7z"/>
					<path id="&lt;Path&gt;" class="s9" d="m202.7 83.3c0 0-33.6 4.8-42.8 8.2-3.8 1.4-38.2 23.3-38.2 23.3 0 0-0.5 17 13.5 30.8l10.4-4.5c0 0-11.7 27.2-13.5 34.9-1.9 7.6-6.5 26.1-6.5 26.1 0 0 17 6.5 31.3 14.9 14.3 8.3 14.5 12.1 27.7 12 13.1-0.2 30.1-7.9 31-8.9 0.8-1-0.9-25.6-0.9-25.6l18.5-36.4 14.4 18.5c0 0 18.1-3.5 27.6-19.3-11.1-20.7-24.6-39.8-28.1-44.7-3.5-4.8-18.4-20.1-21.4-22.8-3-2.7-13.1-6.7-23-6.5z"/>
					<path id="&lt;Path&gt;" class="s12" d="m225.7 89.8c-3-2.7-13.1-6.7-23-6.5 0 0-3.8 0.5-9.2 1.4-0.8 6.9 0 16.8 2.1 19.3 2.4 2.9 8.1 12 17.6 12.8 8.9 0.7 17.1-9.5 19.6-20-3.2-3.3-6-6-7.1-7z"/>
					<path id="&lt;Path&gt;" class="s10" d="m198.5 89.7c0 0 0 6.4 1.1 9.5 1.1 3.1 7.3 12.7 13 12.9 5.7 0.3 13.9-10.7 14.6-15.5 0.7-4.7 0.8-8.5 0.8-8.5v-7.4h-29.5z"/>
					<path id="&lt;Path&gt;" class="s7" d="m145.6 141.1c0 0-11.7 27.2-13.5 34.9-1.9 7.6-6.5 26.1-6.5 26.1 0 0 6.6 2.6 15.1 6.5 1.9-10.2 5.7-29.8 7.4-36.1 2.3-8.7 18.5-43.7 18.5-43.7 0 0-10.2 7-21 12.3z"/>
					<path id="&lt;Path&gt;" class="s7" d="m220.6 182.9c-8.1 4.1-32.6 16-51.2 19.9 9.1 0.6 28.2-1 45.3-8.3z"/>
				</g>
				<g id="&lt;Group&gt;">
					<path id="&lt;Path&gt;" class="s4" d="m191.7 52.6c-1.9 4.3-3.2 10.1-3.6 13.5-0.3 3.4-0.2 4-0.9 5.8-0.6 1.8-3.4 6.5-3.2 7.3 0.2 0.7 4.5 2.8 4.5 2.8 0 0 0.8 9.9 0.9 11.8 0 1.8 1.3 2.7 3.3 2.8 2 0.1 17.5-1.9 22.3-4.5 4.8-2.7 8.4-8.3 8.4-8.3 0 0 4.2 1.8 9.6-3.9 5.3-5.8 11.7-24 6-34.4-5.8-10.3-22.4-14.5-31.5-10.6-9.1 3.9-12.9 11.2-15.8 17.7z"/>
					<path id="&lt;Path&gt;" class="s5" d="m190.9 54.6c0 0 11.9-2.5 14.5-2.7 2.6-0.1 3.6 0.7 3.8 1.7 0.3 1.1-0.1 6.3 0.6 6.9 0.8 0.6 7.4 1.8 7.6 2.4 0.3 0.6 0.5 12.1 0.5 12.1 0 0 3.2 0 3.5-0.3 0.3-0.2 1.6-4 2.8-5.1 1.2-1.1 4.5-1.7 5.1-1 0.6 0.7 3.3 4 2.7 6.8-0.5 2.7-5.7 8-8.4 8.5 1.4 1.5 4.4 4.2 4.4 4.2 0 0 7.2-4.4 12.3-13.9 5-9.4 5.3-20 4.4-23.6-0.8-3.5-3.5-6.4-3.5-6.4 0 0-6.2-8.7-12.7-10.7-6.5-2.1-15.5-3.5-24.2 0.2-8.8 3.7-12 10.5-12.6 12.9-0.5 2.5-0.8 8-0.8 8z"/>
				</g>
				<path id="&lt;Path&gt;" class="s9" d="m111.5 305.3c0 0-0.3 1.1 0 2.5 0.4 1.4 11 32.6 18 48.8 7 16.3 9.9 22.7 11.2 23.6 1.4 1 6.1 4.9 9.7-1.1 3.6-6 3.9-9.3 3.6-12.6-0.3-3.4-4.9-26.2-5.5-34.5-0.6-8.4-0.8-25-1.8-30.1-0.9-5.1-3-7.4-3-7.4 0 0-13.2 13.3-32.2 10.8z"/>
				<path id="&lt;Path&gt;" class="s9" d="m268.2 307c-6.8 5.3-19.4 7.4-31.3 5.4 0 0-3.1 13.6 5.4 34.6 8.6 21 14.2 33 17.1 42.6 2.8 9.5 3.8 13.4 4.7 16.5 0.9 3.2 5 6 11.5 4.5 6.5-1.6 5.4-8.6 4-13.7-1.4-5-6.4-51.6-7.4-64.9-1-13.2-3-22.7-3.2-23.6-0.1-1-0.8-1.4-0.8-1.4z"/>
				<path id="&lt;Path&gt;" class="s5" d="m267.4 401.6c-0.7 0.8-2.9 2.3-3.7 3.1-0.8 0.8-1.7 5.1-2.1 7.9-0.4 2.9-1.1 7.3-0.4 7.9 0.6 0.7 4.4 1 8.5 1.4 4 0.3 7.8-0.3 9 0 1.1 0.2 4.8 2.5 10 3.3 5.3 0.8 9.5 0.7 13.6 0 4.1-0.7 6.8-3.2 6.5-4.8-0.2-1.6-0.6-4.7-3.1-5.8-2.5-1.1-10.8-5-12.5-6.6-1.8-1.6-9-6.5-10.9-8.2-1.9-1.8-2.3-3.3-5.9-3.4-3.6-0.1-7 2-9 5.2z"/>
			</g>
		</g>
		<path id="&lt;Path&gt;" class="s19" d="m-1005-44.4h1388"/>
		<path id="&lt;Path&gt;" class="s19" d="m-1005 426.1h1388"/>
	</g>
</svg>